<svg width="119" height="44" viewBox="0 0 119 44" fill="none" xmlns="http://www.w3.org/2000/svg">
<g id="logo_green 1">
<path id="Vector" d="M39.9234 1.96353C39.922 1.96242 39.9202 1.96204 39.9187 1.96093C37.9793 0.678384 35.7407 0 33.4444 0C28.7581 0 24.6909 2.77811 22.7187 6.81578C20.7468 2.77811 16.6796 0 11.9933 0C9.69698 0 7.45837 0.678012 5.51859 1.96093C5.51715 1.96204 5.51534 1.96242 5.5139 1.96353C2.06103 4.24881 0 8.12427 0 12.3304C0 14.6948 0.660907 16.9993 1.91196 18.9951C1.91738 19.0045 1.92243 19.0144 1.92821 19.0237C1.92893 19.0252 1.92965 19.0263 1.93037 19.0274C1.95095 19.0642 1.97224 19.1013 1.99426 19.1365C2.00292 19.1506 2.01158 19.1644 2.02025 19.1781C2.02061 19.1785 2.02097 19.1788 2.02133 19.1788C2.07872 19.2683 2.14008 19.3555 2.20289 19.4416C2.23213 19.482 2.26136 19.5221 2.29096 19.5618L2.29854 19.5722L2.44798 19.7793L2.45989 19.796C2.5198 19.881 2.58008 19.966 2.64289 20.0495C2.67213 20.0888 2.70208 20.1274 2.73276 20.1656C2.73349 20.1671 2.73457 20.1682 2.73565 20.1697C2.73565 20.1697 2.73637 20.1701 2.73673 20.1705C2.73782 20.1723 2.7389 20.1738 2.74034 20.1752C2.74829 20.1853 2.75659 20.1949 2.76525 20.2053C2.79305 20.2384 2.82445 20.2736 2.86452 20.3177C3.05834 20.5527 3.26987 20.8032 3.54058 21.0804L13.108 30.2189V28.4398V26.6619V21.617H22.3317V19.4665V13.5651V12.1333H22.7089H22.7284H23.9961H32.1716V19.4665V21.617H37.6098H39.4722H41.3337L41.931 21.0463C42.1721 20.7976 42.3855 20.5449 42.5801 20.3092C42.5804 20.3089 42.5804 20.3085 42.5807 20.3081C42.5822 20.3063 42.584 20.3052 42.5855 20.3033C42.5861 20.3026 42.5869 20.3022 42.5876 20.3014C42.588 20.3007 42.5891 20.3 42.5894 20.2996C42.5927 20.2962 42.5952 20.2929 42.5981 20.2892C42.6219 20.2632 42.6457 20.2368 42.6688 20.2094C42.671 20.2098 42.6699 20.2083 42.6703 20.2079C42.6793 20.1971 42.6883 20.1864 42.697 20.1752C42.6977 20.1745 42.698 20.1738 42.6988 20.173C42.6992 20.1727 42.6998 20.1723 42.7002 20.1715C42.7006 20.1712 42.7006 20.1708 42.701 20.1705C42.732 20.1319 42.7627 20.0922 42.7923 20.0524C42.8562 19.9682 42.9168 19.8821 42.9774 19.796L42.9962 19.7697L43.1456 19.5629C43.1666 19.5347 43.1875 19.5062 43.2084 19.4772C43.2633 19.4026 43.3153 19.3262 43.3669 19.2493C43.3821 19.2267 43.4005 19.2041 43.4149 19.1814C43.4276 19.1618 43.4405 19.1406 43.4535 19.1187C43.4554 19.1161 43.4568 19.1139 43.4586 19.1109C43.459 19.1106 43.459 19.1098 43.4593 19.1098C43.4709 19.0897 43.4824 19.0705 43.494 19.0508C43.4951 19.0486 43.4965 19.0464 43.4976 19.0441C43.4987 19.0426 43.4997 19.0408 43.5005 19.0393C43.5102 19.0226 43.5178 19.0096 43.529 18.9903C43.5351 18.9803 43.5398 18.9699 43.5459 18.9599C44.7826 16.9722 45.4374 14.681 45.4374 12.3304C45.4374 8.12427 43.3759 4.24881 39.9234 1.96353Z" fill="#4DBA91"/>
<path id="Vector_2" d="M16.5562 31.7335H14.6937L21.8557 38.5748C21.9962 38.7088 22.16 38.7994 22.3318 38.8561V37.2503V35.4716V31.7335H18.418H16.5562Z" fill="#4DBA91"/>
<path id="Vector_3" d="M42.4163 31.9508C40.6339 32.091 39.755 32.3048 38.9129 31.7333C38.5328 31.4757 38.1606 31.059 37.7163 30.4029C37.1731 29.6005 36.3855 28.4445 35.4416 27.2451C35.181 26.9133 34.907 26.5793 34.6241 26.248C34.3465 25.9229 34.0591 25.603 33.7639 25.2905C33.2539 24.7505 32.7208 24.2399 32.1714 23.7875C31.448 23.1915 30.6991 22.6954 29.9436 22.3802C29.1257 22.0392 28.3868 21.7924 27.7169 21.6169C25.7454 21.1 24.3755 21.2023 23.388 21.3597C23.6688 21.428 23.9901 21.5141 24.3376 21.6169C26.6185 22.2893 30.11 23.714 31.7993 26.1021C28.8788 24.6789 26.8102 24.0847 24.8177 24.1475C26.4745 24.9328 29.0817 26.1589 31.0387 27.8934C31.3639 28.1818 31.6697 28.4842 31.9512 28.8008C32.0252 28.8839 32.1014 28.9663 32.1714 29.0513C32.3082 29.2164 32.4385 29.3853 32.5598 29.5582C32.4233 29.4636 32.2948 29.3753 32.1714 29.2903C32.0201 29.1864 31.8783 29.0895 31.744 28.9986C31.3054 28.7028 30.9488 28.4746 30.6229 28.2909C29.7411 27.7947 29.0781 27.6251 27.6014 27.3375C28.3532 27.9191 29.0928 28.4594 29.8256 29.0524C30.1548 29.3189 30.4825 29.5961 30.8088 29.8922C31.1171 30.1717 31.4242 30.4686 31.731 30.7895C31.8779 30.9435 32.0249 31.1031 32.1714 31.269C32.3031 31.4182 32.4349 31.5737 32.5666 31.7333C32.7623 31.9708 32.9575 32.218 33.1532 32.4829C34.9781 34.9534 35.5827 37.8462 32.5785 40.3589C32.4446 40.471 32.3089 40.5775 32.1714 40.6807C31.9148 40.874 31.6487 41.0514 31.3697 41.2166C29.723 42.1911 27.5649 42.714 23.388 43.2105C23.388 43.2105 29.5238 45.134 34.715 42.976C39.9066 40.818 41.3211 36.5955 41.6406 35.9702C41.9601 35.3445 42.7202 34.0776 43.8915 34.2342C45.0628 34.3904 46.2189 35.1256 46.2189 35.1256C46.2189 35.1256 45.0021 31.7477 42.4163 31.9508Z" fill="#4DBA91"/>
<path id="Vector_4" d="M50.0671 23.6938C49.7021 24.1941 48.2114 25.1014 47.1773 25.8833C47.5725 25.2888 47.6942 25.0699 49.5498 23.0997C51.4058 21.1291 52.3789 17.814 52.0443 18.5644C52.0255 18.6067 52.0061 18.6475 51.9852 18.6883C51.6296 19.3704 50.8803 19.8915 47.6638 22.2238C44.2568 24.6947 42.861 26.4385 41.7774 28.4206C41.6403 28.6711 41.5132 28.9023 41.3952 29.1157C40.5794 30.5912 40.2109 31.2002 40.2109 31.2002C40.6372 31.1041 41.0249 31.041 41.3952 30.9946C42.9541 30.7987 44.0756 31.0228 45.1693 31.591C46.2316 29.9336 48.2417 27.5407 48.2417 27.5407C48.2417 27.5407 47.8464 27.6035 46.219 28.2291C48.4547 26.6653 49.2152 25.2576 50.0671 23.6938Z" fill="#4DBA91"/>
<path id="Vector_5" d="M30.5064 40.5209C28.2201 40.9562 27.2412 41.1392 26.3356 41.2167C25.6743 41.2731 25.052 41.2739 23.9894 41.2739C23.5054 41.2739 23.0535 41.2505 22.6163 41.2167C22.5217 41.2093 22.4243 41.2041 22.3319 41.1956C20.6257 41.0349 19.2407 40.6467 17.912 40.2392C17.912 40.2392 19.4941 41.6465 21.2433 42.304C23.2704 42.3233 26.0028 42.4477 29.034 41.2167C29.5181 41.0204 30.009 40.7925 30.5064 40.5209Z" fill="#4DBA91"/>
<path id="Vector_6" d="M59.8062 11.3481C59.5276 11.3481 59.249 11.3383 58.9704 11.3187C58.6969 11.3041 58.4109 11.265 58.1126 11.2014V6.2734C58.3472 6.2294 58.6038 6.19764 58.8824 6.17807C59.161 6.15364 59.4199 6.1414 59.6596 6.1414C59.9822 6.1414 60.2777 6.16583 60.5467 6.21473C60.8203 6.25873 61.0549 6.33697 61.2506 6.4494C61.4463 6.56183 61.5974 6.71097 61.7052 6.89673C61.8174 7.07764 61.8738 7.30249 61.8738 7.5714C61.8738 7.97716 61.6781 8.2974 61.2872 8.53207C61.6098 8.65431 61.8298 8.82049 61.9471 9.03073C62.0644 9.24098 62.1231 9.47807 62.1231 9.74207C62.1231 10.275 61.9274 10.6758 61.5365 10.9447C61.1502 11.2136 60.5738 11.3481 59.8062 11.3481ZM59.227 9.0674V10.3801C59.3099 10.3898 59.4007 10.3972 59.4983 10.4021C59.5959 10.407 59.7036 10.4094 59.8209 10.4094C60.1632 10.4094 60.439 10.3605 60.6494 10.2627C60.8597 10.165 60.9646 9.98407 60.9646 9.72007C60.9646 9.4854 60.8767 9.31916 60.7007 9.2214C60.5247 9.11873 60.2732 9.0674 59.9455 9.0674H59.227ZM59.227 8.19473H59.7842C60.1362 8.19473 60.3877 8.15073 60.5394 8.06273C60.6911 7.96983 60.7667 7.82316 60.7667 7.62273C60.7667 7.4174 60.6883 7.27316 60.5321 7.19007C60.3758 7.10698 60.1457 7.0654 59.8429 7.0654C59.7453 7.0654 59.6399 7.06783 59.5276 7.07273C59.4154 7.07273 59.315 7.07764 59.227 7.0874V8.19473ZM67.2175 6.20007V11.2821H66.0737V7.16807H64.1822V11.2821H63.0384V6.20007H67.2175ZM71.0137 5.70873V6.2514C71.0137 6.48607 70.9939 6.74273 70.955 7.0214C70.9206 7.30007 70.8817 7.58116 70.8377 7.86473H70.1119C70.0577 7.58116 70.0137 7.30007 69.9799 7.0214C69.9506 6.74273 69.9359 6.48364 69.9359 6.24407V5.70873H71.0137ZM72.612 5.70873V6.2514C72.612 6.48607 72.5922 6.74273 72.5533 7.0214C72.5189 7.30007 72.48 7.58116 72.436 7.86473H71.7102C71.656 7.58116 71.612 7.30007 71.5782 7.0214C71.5489 6.74273 71.5342 6.48364 71.5342 6.24407V5.70873H72.612ZM75.3197 7.16807C75.305 7.49564 75.2858 7.82564 75.261 8.15807C75.2418 8.48564 75.2023 8.8034 75.1437 9.1114C75.0901 9.4194 75.0095 9.70783 74.9017 9.97673C74.7991 10.2456 74.6553 10.4827 74.4692 10.6881C74.2887 10.8934 74.0614 11.0572 73.7873 11.1794C73.5138 11.3016 73.1788 11.3701 72.7829 11.3847L72.6582 10.3874C73.0101 10.3483 73.2814 10.2603 73.4721 10.1234C73.6627 9.98164 73.8071 9.76649 73.9046 9.47807C74.027 9.12116 74.1127 8.66164 74.1612 8.0994C74.2154 7.53231 74.2419 6.89916 74.2419 6.20007H77.7098V11.2821H76.566V7.16807H75.3197ZM79.9026 11.2821H78.8101V7.42473H79.9026V11.2821ZM80.0052 6.31007C80.0052 6.51049 79.9392 6.6694 79.8073 6.78673C79.6804 6.89916 79.5286 6.9554 79.3527 6.9554C79.1767 6.9554 79.0228 6.89916 78.8908 6.78673C78.7639 6.6694 78.7002 6.51049 78.7002 6.31007C78.7002 6.10964 78.7639 5.95316 78.8908 5.84073C79.0228 5.7234 79.1767 5.66473 79.3527 5.66473C79.5286 5.66473 79.6804 5.7234 79.8073 5.84073C79.9392 5.95316 80.0052 6.10964 80.0052 6.31007ZM82.022 8.77407C82.1297 8.6714 82.242 8.55898 82.3593 8.43673C82.4816 8.31449 82.599 8.19473 82.7112 8.0774C82.8234 7.95516 82.9311 7.83783 83.0338 7.7254C83.1364 7.61297 83.2267 7.51273 83.3051 7.42473H84.6321C84.5345 7.5274 84.4122 7.65449 84.2655 7.80607C84.124 7.95764 83.9722 8.11649 83.811 8.28273C83.6497 8.44407 83.4861 8.6054 83.3197 8.76673C83.1584 8.92807 83.0045 9.07231 82.8578 9.1994C83.0045 9.31183 83.1607 9.45116 83.3271 9.6174C83.4934 9.78364 83.6547 9.96207 83.811 10.1527C83.9722 10.3434 84.124 10.5365 84.2655 10.7321C84.4122 10.9276 84.5368 11.111 84.6394 11.2821H83.393C83.3051 11.1501 83.2047 11.0132 83.0924 10.8714C82.9802 10.7247 82.8629 10.583 82.7405 10.4461C82.6181 10.3043 82.4935 10.1723 82.3666 10.0501C82.2442 9.92783 82.1297 9.82273 82.022 9.73473V11.2821H80.9296V7.42473H82.022V8.77407ZM86.6275 10.5194C86.7352 10.5194 86.8378 10.517 86.9354 10.5121C87.033 10.5072 87.1114 10.4998 87.17 10.4901V9.6614C87.126 9.65164 87.06 9.64183 86.9721 9.63207C86.8841 9.62231 86.8034 9.6174 86.7301 9.6174C86.6275 9.6174 86.5299 9.62473 86.4368 9.6394C86.3489 9.64916 86.2705 9.67116 86.2022 9.7054C86.134 9.73964 86.0798 9.78607 86.0409 9.84473C86.002 9.9034 85.9823 9.97673 85.9823 10.0647C85.9823 10.2358 86.0387 10.3556 86.1509 10.4241C86.2682 10.4876 86.4273 10.5194 86.6275 10.5194ZM86.5395 7.32207C86.8621 7.32207 87.1311 7.35873 87.346 7.43207C87.5609 7.5054 87.7323 7.61049 87.8592 7.7474C87.9912 7.88431 88.0842 8.05049 88.1378 8.24607C88.1914 8.44164 88.2185 8.65916 88.2185 8.89873V11.1721C88.0622 11.2063 87.8445 11.2454 87.5659 11.2894C87.2873 11.3383 86.9501 11.3627 86.5542 11.3627C86.3049 11.3627 86.0776 11.3407 85.8723 11.2967C85.6721 11.2527 85.4984 11.1818 85.3517 11.0841C85.2051 10.9814 85.0929 10.8494 85.0145 10.6881C84.9361 10.5267 84.8972 10.3287 84.8972 10.0941C84.8972 9.86916 84.9412 9.67849 85.0292 9.52207C85.1222 9.36564 85.244 9.24097 85.3957 9.14807C85.5474 9.05516 85.7206 8.98916 85.9163 8.95007C86.112 8.90607 86.3145 8.88407 86.5248 8.88407C86.6664 8.88407 86.791 8.8914 86.8987 8.90607C87.011 8.91583 87.1018 8.93049 87.17 8.95007V8.8474C87.17 8.66164 87.1136 8.51249 87.0014 8.40007C86.8892 8.28764 86.6935 8.2314 86.4149 8.2314C86.2293 8.2314 86.046 8.24607 85.865 8.2754C85.6839 8.29983 85.5277 8.33649 85.3957 8.3854L85.2564 7.5054C85.3202 7.48583 85.398 7.46631 85.4911 7.44673C85.5886 7.42231 85.6941 7.40273 85.8063 7.38807C85.9185 7.36849 86.0359 7.35383 86.1582 7.34407C86.2851 7.3294 86.4126 7.32207 86.5395 7.32207ZM91.6774 9.38273C91.6774 9.0454 91.6012 8.77649 91.4501 8.57607C91.2984 8.37073 91.0733 8.26807 90.7756 8.26807C90.6774 8.26807 90.5872 8.27297 90.5043 8.28273C90.4208 8.28764 90.3526 8.29498 90.299 8.30473V10.2774C90.3672 10.3214 90.4552 10.3581 90.5629 10.3874C90.6752 10.4167 90.7874 10.4314 90.9002 10.4314C91.4179 10.4314 91.6774 10.0818 91.6774 9.38273ZM92.7918 9.3534C92.7918 9.65164 92.7551 9.92298 92.6818 10.1674C92.6085 10.4118 92.5008 10.6221 92.3592 10.7981C92.2171 10.9741 92.0411 11.111 91.8313 11.2087C91.621 11.3065 91.379 11.3554 91.1055 11.3554C90.9538 11.3554 90.8122 11.3407 90.6802 11.3114C90.5483 11.2821 90.4208 11.2405 90.299 11.1867V12.6387H89.2066V7.55673C89.3041 7.5274 89.4164 7.50049 89.5438 7.47607C89.6707 7.44673 89.8027 7.42231 89.9397 7.40273C90.0813 7.38316 90.2229 7.36849 90.365 7.35873C90.5116 7.34407 90.6509 7.33673 90.7829 7.33673C91.1004 7.33673 91.3841 7.38564 91.6334 7.4834C91.8826 7.57631 92.0924 7.71073 92.2639 7.88673C92.4348 8.05783 92.5645 8.26807 92.6525 8.5174C92.745 8.76673 92.7918 9.0454 92.7918 9.3534ZM96.9523 11.2821H95.8598V9.75673H94.7234V11.2821H93.631V7.42473H94.7234V8.86207H95.8598V7.42473H96.9523V11.2821ZM99.5753 9.91073C99.4191 10.1405 99.2798 10.3727 99.1574 10.6074C99.0356 10.8372 98.9183 11.0621 98.8055 11.2821H97.6838C97.8259 10.9643 97.9697 10.6734 98.1163 10.4094C98.263 10.1454 98.4051 9.91807 98.5416 9.7274C98.3363 9.61983 98.1727 9.48298 98.0503 9.31673C97.9285 9.14564 97.8671 8.93298 97.8671 8.67873C97.8671 8.24849 98.021 7.91849 98.329 7.68873C98.642 7.45898 99.0723 7.34407 99.6193 7.34407C99.7417 7.34407 99.8759 7.34898 100.023 7.35873C100.174 7.36849 100.323 7.38316 100.47 7.40273C100.616 7.42231 100.756 7.44431 100.888 7.46873C101.025 7.48831 101.14 7.51031 101.232 7.53473V11.2821H100.14V9.91073H99.5753ZM100.14 8.2094C100.091 8.20449 100.015 8.19964 99.9126 8.19473C99.81 8.18498 99.722 8.18007 99.6487 8.18007C99.3802 8.18007 99.1969 8.22649 99.0988 8.3194C99.0012 8.4074 98.9522 8.52231 98.9522 8.66407C98.9522 8.75207 98.9719 8.82783 99.0108 8.8914C99.0503 8.95007 99.1016 8.99897 99.1648 9.03807C99.2285 9.07231 99.2996 9.09673 99.3774 9.1114C99.4558 9.12607 99.5342 9.1334 99.612 9.1334H100.14V8.2094ZM59.1317 19.7436H58.0393V15.8863H59.1317V19.7436ZM59.2343 14.7716C59.2343 14.972 59.1684 15.1309 59.0364 15.2483C58.9095 15.3607 58.7578 15.4169 58.5818 15.4169C58.4059 15.4169 58.2519 15.3607 58.1199 15.2483C57.993 15.1309 57.9293 14.972 57.9293 14.7716C57.9293 14.5712 57.993 14.4147 58.1199 14.3023C58.2519 14.1849 58.4059 14.1263 58.5818 14.1263C58.7578 14.1263 58.9095 14.1849 59.0364 14.3023C59.1684 14.4147 59.2343 14.5712 59.2343 14.7716ZM63.48 19.7436H62.3876V18.2183H61.2511V19.7436H60.1587V15.8863H61.2511V17.3236H62.3876V15.8863H63.48V19.7436ZM67.6941 16.7809H66.4623V19.7436H65.3699V16.7809H64.1382V15.8863H67.6941V16.7809ZM68.1734 17.8443C68.1734 17.502 68.2248 17.2038 68.3274 16.9496C68.4351 16.6905 68.5744 16.4754 68.7453 16.3043C68.9162 16.1332 69.1119 16.0036 69.3319 15.9156C69.5569 15.8276 69.7864 15.7836 70.021 15.7836C70.5687 15.7836 71.0012 15.9523 71.3188 16.2896C71.6363 16.622 71.7953 17.1134 71.7953 17.7636C71.7953 17.8272 71.7931 17.898 71.788 17.9763C71.7829 18.0496 71.7784 18.1156 71.7733 18.1743H69.2952C69.3195 18.3992 69.4249 18.5776 69.6105 18.7096C69.796 18.8416 70.0453 18.9076 70.3583 18.9076C70.5585 18.9076 70.7542 18.8905 70.9448 18.8563C71.1406 18.8172 71.299 18.7707 71.4214 18.7169L71.5681 19.6043C71.5094 19.6336 71.431 19.6629 71.3334 19.6923C71.2359 19.7216 71.1259 19.746 71.0035 19.7656C70.8862 19.79 70.7593 19.8096 70.6223 19.8243C70.4852 19.8389 70.3487 19.8463 70.2117 19.8463C69.8648 19.8463 69.5614 19.7949 69.3025 19.6923C69.0482 19.5896 68.8356 19.4503 68.6647 19.2743C68.4983 19.0934 68.3737 18.8807 68.2908 18.6363C68.2124 18.3918 68.1734 18.1278 68.1734 17.8443ZM70.7396 17.4263C70.7345 17.3334 70.7176 17.2429 70.6882 17.1549C70.664 17.0669 70.6223 16.9887 70.5636 16.9203C70.51 16.8518 70.439 16.7956 70.351 16.7516C70.2681 16.7076 70.1626 16.6856 70.0357 16.6856C69.9133 16.6856 69.8084 16.7076 69.7204 16.7516C69.6325 16.7907 69.5592 16.8445 69.5005 16.9129C69.4418 16.9814 69.3956 17.062 69.3612 17.1549C69.3319 17.2429 69.3099 17.3334 69.2952 17.4263H70.7396ZM75.9598 19.7436H74.8673V18.2183H73.7309V19.7436H72.6385V15.8863H73.7309V17.3236H74.8673V15.8863H75.9598V19.7436ZM76.8012 17.8149C76.8012 17.5363 76.8452 17.2747 76.9332 17.0303C77.0257 16.7809 77.1577 16.5658 77.3291 16.3849C77.5 16.1992 77.7075 16.0525 77.9523 15.9449C78.1965 15.8374 78.4751 15.7836 78.7881 15.7836C78.9934 15.7836 79.1812 15.8032 79.3527 15.8423C79.5236 15.8765 79.6899 15.9278 79.8512 15.9963L79.624 16.8689C79.5213 16.8298 79.4085 16.7956 79.2867 16.7663C79.1643 16.7369 79.0273 16.7223 78.8761 16.7223C78.5535 16.7223 78.3116 16.8225 78.1503 17.0229C77.9935 17.2234 77.9157 17.4874 77.9157 17.8149C77.9157 18.162 77.989 18.4309 78.1356 18.6216C78.2868 18.8123 78.5484 18.9076 78.9201 18.9076C79.0521 18.9076 79.1936 18.8954 79.3454 18.8709C79.4965 18.8465 79.6358 18.8074 79.7633 18.7536L79.9172 19.6483C79.7898 19.702 79.6313 19.7485 79.4407 19.7876C79.25 19.8267 79.0397 19.8463 78.8101 19.8463C78.4582 19.8463 78.1548 19.7949 77.901 19.6923C77.6466 19.5847 77.4363 19.4405 77.2705 19.2596C77.1092 19.0787 76.989 18.866 76.9112 18.6216C76.8379 18.3723 76.8012 18.1034 76.8012 17.8149ZM84.1623 15.8863V19.7436H83.0626C83.0626 19.4992 83.0648 19.2572 83.0699 19.0176C83.0744 18.7732 83.0795 18.5483 83.0845 18.3429C83.0891 18.1376 83.0941 17.9592 83.0992 17.8076C83.1088 17.6512 83.1139 17.5363 83.1139 17.4629C82.9717 17.6634 82.8302 17.8663 82.6886 18.0716C82.5465 18.2769 82.41 18.4798 82.278 18.6803C82.1506 18.8758 82.0288 19.064 81.9115 19.2449C81.7987 19.4258 81.6988 19.592 81.6109 19.7436H80.6504V15.8863H81.7428C81.7428 16.1307 81.74 16.3654 81.7355 16.5903C81.7355 16.8103 81.7327 17.0107 81.7282 17.1916C81.7231 17.3725 81.718 17.5314 81.7135 17.6683C81.7084 17.8003 81.7062 17.9029 81.7062 17.9763C81.9994 17.546 82.2679 17.1598 82.5127 16.8176C82.7619 16.4754 83.0039 16.1649 83.2385 15.8863H84.1623ZM86.2823 18.9369C86.3506 18.9467 86.4408 18.9565 86.5536 18.9663C86.6709 18.9712 86.7781 18.9736 86.8762 18.9736C87.1204 18.9736 87.311 18.9443 87.4481 18.8856C87.5845 18.822 87.6534 18.7096 87.6534 18.5483C87.6534 18.3918 87.5896 18.2843 87.4627 18.2256C87.3403 18.162 87.1593 18.1303 86.9202 18.1303H86.2823V18.9369ZM86.8982 17.3969C87.0787 17.3969 87.2253 17.3749 87.3381 17.3309C87.4503 17.282 87.5067 17.1794 87.5067 17.0229C87.5067 16.8763 87.443 16.776 87.3161 16.7223C87.1886 16.6685 87.0228 16.6416 86.8175 16.6416C86.7487 16.6416 86.6585 16.6465 86.5463 16.6563C86.4385 16.6612 86.3506 16.6685 86.2823 16.6783V17.3969H86.8982ZM86.8615 19.8169C86.7245 19.8169 86.5778 19.812 86.4216 19.8023C86.2648 19.7925 86.1109 19.7778 85.9597 19.7583C85.808 19.7436 85.6636 19.7265 85.5271 19.7069C85.3952 19.6825 85.2824 19.6605 85.1899 19.6409V15.9449C85.2824 15.9254 85.3952 15.9083 85.5271 15.8936C85.6636 15.874 85.808 15.8569 85.9597 15.8423C86.1109 15.8276 86.2648 15.8178 86.4216 15.8129C86.5778 15.8032 86.7245 15.7983 86.8615 15.7983C87.179 15.7983 87.4452 15.83 87.6607 15.8936C87.8806 15.9572 88.0566 16.0403 88.1886 16.1429C88.3251 16.2456 88.4232 16.3605 88.4818 16.4876C88.5405 16.6147 88.5698 16.7418 88.5698 16.8689C88.5698 17.04 88.5281 17.1965 88.4452 17.3383C88.3617 17.48 88.2568 17.5827 88.1299 17.6463C88.1982 17.6756 88.2664 17.7172 88.3352 17.7709C88.4085 17.8247 88.4745 17.8907 88.5332 17.9689C88.5918 18.0423 88.6381 18.1327 88.6725 18.2403C88.7114 18.3429 88.7311 18.4627 88.7311 18.5996C88.7311 18.756 88.699 18.9076 88.6358 19.0543C88.5772 19.2009 88.4745 19.3305 88.3279 19.4429C88.1812 19.5554 87.9878 19.6458 87.7487 19.7143C87.509 19.7827 87.2134 19.8169 86.8615 19.8169ZM92.8927 19.7436H91.8003V18.2183H90.6639V19.7436H89.5715V15.8863H90.6639V17.3236H91.8003V15.8863H92.8927V19.7436ZM97.5247 17.8076C97.5247 18.1107 97.4807 18.3894 97.3927 18.6436C97.3048 18.8929 97.1779 19.108 97.0115 19.2889C96.8457 19.4649 96.6449 19.6018 96.4103 19.6996C96.1807 19.7974 95.9219 19.8463 95.6331 19.8463C95.35 19.8463 95.0906 19.7974 94.856 19.6996C94.6264 19.6018 94.4285 19.4649 94.2621 19.2889C94.0963 19.108 93.9666 18.8929 93.8735 18.6436C93.781 18.3894 93.7342 18.1107 93.7342 17.8076C93.7342 17.5045 93.781 17.2283 93.8735 16.9789C93.9716 16.7296 94.1036 16.5169 94.2694 16.3409C94.4409 16.1649 94.6411 16.028 94.8706 15.9303C95.1052 15.8325 95.3596 15.7836 95.6331 15.7836C95.9117 15.7836 96.1661 15.8325 96.3956 15.9303C96.6302 16.028 96.831 16.1649 96.9968 16.3409C97.1632 16.5169 97.2929 16.7296 97.3854 16.9789C97.4785 17.2283 97.5247 17.5045 97.5247 17.8076ZM96.4103 17.8076C96.4103 17.4703 96.342 17.2063 96.205 17.0156C96.073 16.82 95.8824 16.7223 95.6331 16.7223C95.3838 16.7223 95.191 16.82 95.0539 17.0156C94.9174 17.2063 94.8486 17.4703 94.8486 17.8076C94.8486 18.1449 94.9174 18.4138 95.0539 18.6143C95.191 18.8098 95.3838 18.9076 95.6331 18.9076C95.8824 18.9076 96.073 18.8098 96.205 18.6143C96.342 18.4138 96.4103 18.1449 96.4103 17.8076ZM101.106 16.7809H99.4637V19.7436H98.3713V15.8863H101.106V16.7809ZM105.3 17.8076C105.3 18.1107 105.256 18.3894 105.168 18.6436C105.08 18.8929 104.953 19.108 104.787 19.2889C104.621 19.4649 104.421 19.6018 104.186 19.6996C103.956 19.7974 103.697 19.8463 103.409 19.8463C103.126 19.8463 102.866 19.7974 102.632 19.6996C102.402 19.6018 102.204 19.4649 102.038 19.2889C101.872 19.108 101.742 18.8929 101.649 18.6436C101.557 18.3894 101.51 18.1107 101.51 17.8076C101.51 17.5045 101.557 17.2283 101.649 16.9789C101.747 16.7296 101.879 16.5169 102.045 16.3409C102.216 16.1649 102.417 16.028 102.646 15.9303C102.881 15.8325 103.135 15.7836 103.409 15.7836C103.687 15.7836 103.942 15.8325 104.171 15.9303C104.406 16.028 104.607 16.1649 104.772 16.3409C104.939 16.5169 105.069 16.7296 105.161 16.9789C105.254 17.2283 105.3 17.5045 105.3 17.8076ZM104.186 17.8076C104.186 17.4703 104.118 17.2063 103.981 17.0156C103.849 16.82 103.658 16.7223 103.409 16.7223C103.159 16.7223 102.967 16.82 102.83 17.0156C102.693 17.2063 102.624 17.4703 102.624 17.8076C102.624 18.1449 102.693 18.4138 102.83 18.6143C102.967 18.8098 103.159 18.9076 103.409 18.9076C103.658 18.9076 103.849 18.8098 103.981 18.6143C104.118 18.4138 104.186 18.1449 104.186 17.8076ZM59.7696 25.2425C59.7645 25.3842 59.7572 25.5358 59.7476 25.6971C59.7425 25.8536 59.7307 26.0125 59.7109 26.1738C59.6912 26.3302 59.6647 26.4842 59.6303 26.6358C59.6009 26.7874 59.562 26.9291 59.513 27.0611C59.4543 27.2176 59.3787 27.3642 59.2857 27.5011C59.1977 27.6331 59.0826 27.7529 58.9411 27.8605C58.804 27.9681 58.6354 28.0585 58.4352 28.1318C58.2395 28.2002 58.0099 28.2467 57.746 28.2711L57.5994 27.3618C57.8486 27.3129 58.0415 27.2445 58.1786 27.1565C58.3156 27.0636 58.4183 26.9462 58.4865 26.8045C58.5401 26.6822 58.5818 26.5405 58.6112 26.3791C58.6456 26.2178 58.6698 26.0491 58.6845 25.8731C58.6991 25.6922 58.7065 25.5089 58.7065 25.3231C58.7115 25.1374 58.7138 24.9589 58.7138 24.7878V24.3478H61.6098V28.2051H60.5174V25.2425H59.7696ZM63.7281 28.2051H62.6357V24.3478H63.7281V28.2051ZM63.8308 23.2331C63.8308 23.4336 63.7648 23.5925 63.6328 23.7098C63.5059 23.8222 63.3542 23.8785 63.1783 23.8785C63.0023 23.8785 62.8483 23.8222 62.7164 23.7098C62.5895 23.5925 62.5257 23.4336 62.5257 23.2331C62.5257 23.0327 62.5895 22.8762 62.7164 22.7638C62.8483 22.6465 63.0023 22.5878 63.1783 22.5878C63.3542 22.5878 63.5059 22.6465 63.6328 22.7638C63.7648 22.8762 63.8308 23.0327 63.8308 23.2331ZM65.8476 25.6971C65.9553 25.5945 66.0675 25.4821 66.1848 25.3598C66.3072 25.2376 66.4245 25.1178 66.5368 25.0005C66.6496 24.8782 66.7567 24.7609 66.8594 24.6485C66.962 24.5361 67.0528 24.4358 67.1306 24.3478H68.4577C68.3601 24.4505 68.2377 24.5776 68.0911 24.7291C67.9495 24.8807 67.7978 25.0396 67.6365 25.2058C67.4752 25.3671 67.3117 25.5285 67.1453 25.6898C66.984 25.8511 66.83 25.9954 66.6834 26.1225C66.83 26.2349 66.9868 26.3742 67.1526 26.5405C67.319 26.7067 67.4803 26.8851 67.6365 27.0758C67.7978 27.2665 67.9495 27.4596 68.0911 27.6551C68.2377 27.8507 68.3624 28.0341 68.465 28.2051H67.2186C67.1306 28.0731 67.0308 27.9362 66.918 27.7945C66.8058 27.6478 66.6885 27.5061 66.5661 27.3691C66.4443 27.2274 66.3196 27.0954 66.1922 26.9731C66.0704 26.8509 65.9553 26.7458 65.8476 26.6578V28.2051H64.7552V24.3478H65.8476V25.6971ZM72.6543 24.3478C72.4343 25.0909 72.2042 25.7876 71.9651 26.4378C71.7254 27.0881 71.4637 27.7187 71.1806 28.3298C71.0779 28.5498 70.9753 28.7356 70.8727 28.8871C70.77 29.0436 70.6572 29.1707 70.5354 29.2685C70.413 29.3711 70.2737 29.4445 70.1175 29.4885C69.9658 29.5374 69.7876 29.5618 69.5823 29.5618C69.4108 29.5618 69.2523 29.5447 69.1057 29.5105C68.9636 29.4811 68.8463 29.4469 68.7538 29.4078L68.9444 28.5351C69.0566 28.5742 69.157 28.6011 69.245 28.6158C69.333 28.6305 69.4255 28.6378 69.5236 28.6378C69.7188 28.6378 69.8682 28.5841 69.9709 28.4765C70.078 28.3738 70.1688 28.2296 70.2421 28.0438C69.9928 27.5549 69.7436 27.0074 69.4943 26.4011C69.245 25.7901 69.0104 25.1056 68.7904 24.3478H69.9489C69.9974 24.5385 70.0538 24.7462 70.1175 24.9711C70.1857 25.1911 70.2568 25.4161 70.3301 25.6458C70.4034 25.8707 70.4767 26.0907 70.5501 26.3058C70.6279 26.5209 70.7012 26.7165 70.77 26.8925C70.8332 26.7165 70.8992 26.5209 70.968 26.3058C71.0362 26.0907 71.1022 25.8707 71.1659 25.6458C71.2342 25.4161 71.2979 25.1911 71.3566 24.9711C71.4197 24.7462 71.4761 24.5385 71.5252 24.3478H72.6543ZM74.3321 27.3985C74.4004 27.4082 74.4912 27.4181 74.6034 27.4278C74.7207 27.4327 74.8284 27.4351 74.926 27.4351C75.1702 27.4351 75.3608 27.4058 75.4979 27.3471C75.6349 27.2836 75.7032 27.1711 75.7032 27.0098C75.7032 26.8534 75.6394 26.7458 75.5125 26.6871C75.3901 26.6236 75.2097 26.5918 74.97 26.5918H74.3321V27.3985ZM74.948 25.8585C75.129 25.8585 75.2757 25.8365 75.3879 25.7925C75.5001 25.7436 75.5565 25.6409 75.5565 25.4845C75.5565 25.3378 75.4928 25.2376 75.3659 25.1838C75.239 25.1301 75.0726 25.1031 74.8673 25.1031C74.7991 25.1031 74.7083 25.1081 74.5961 25.1178C74.4883 25.1227 74.4004 25.1301 74.3321 25.1398V25.8585H74.948ZM74.9113 28.2785C74.7743 28.2785 74.6276 28.2736 74.4714 28.2638C74.3152 28.2541 74.1612 28.2394 74.0095 28.2198C73.8578 28.2051 73.714 28.1881 73.577 28.1685C73.445 28.1441 73.3327 28.1221 73.2397 28.1025V24.4065C73.3327 24.3869 73.445 24.3698 73.577 24.3551C73.714 24.3356 73.8578 24.3185 74.0095 24.3038C74.1612 24.2891 74.3152 24.2794 74.4714 24.2745C74.6276 24.2647 74.7743 24.2598 74.9113 24.2598C75.2289 24.2598 75.4956 24.2916 75.7105 24.3551C75.9304 24.4187 76.1064 24.5018 76.2384 24.6045C76.3754 24.7071 76.473 24.8221 76.5317 24.9491C76.5903 25.0762 76.6196 25.2034 76.6196 25.3305C76.6196 25.5016 76.5779 25.6581 76.495 25.7998C76.4121 25.9416 76.3066 26.0442 76.1797 26.1078C76.248 26.1371 76.3168 26.1787 76.385 26.2325C76.4583 26.2862 76.5243 26.3522 76.583 26.4305C76.6416 26.5038 76.6879 26.5942 76.7223 26.7018C76.7612 26.8045 76.7809 26.9242 76.7809 27.0611C76.7809 27.2176 76.7493 27.3691 76.6856 27.5158C76.627 27.6625 76.5243 27.7921 76.3777 27.9045C76.231 28.0169 76.0382 28.1074 75.7985 28.1758C75.5588 28.2442 75.2633 28.2785 74.9113 28.2785ZM79.0955 27.4425C79.2027 27.4425 79.3053 27.4401 79.4034 27.4351C79.501 27.4302 79.5794 27.4229 79.6381 27.4131V26.5845C79.5941 26.5747 79.5281 26.5649 79.4401 26.5551C79.3521 26.5454 79.2715 26.5405 79.1982 26.5405C79.0955 26.5405 78.9974 26.5478 78.9049 26.5625C78.8169 26.5722 78.7385 26.5942 78.6703 26.6285C78.6015 26.6627 78.5479 26.7091 78.509 26.7678C78.4695 26.8265 78.4503 26.8998 78.4503 26.9878C78.4503 27.1589 78.5061 27.2787 78.6189 27.3471C78.7362 27.4107 78.8947 27.4425 79.0955 27.4425ZM79.0075 24.2451C79.3301 24.2451 79.5986 24.2818 79.814 24.3551C80.0289 24.4285 80.1998 24.5336 80.3272 24.6705C80.4592 24.8074 80.5517 24.9736 80.6058 25.1691C80.6594 25.3647 80.6865 25.5822 80.6865 25.8218V28.0951C80.5297 28.1294 80.3126 28.1685 80.034 28.2125C79.7554 28.2614 79.4181 28.2858 79.0222 28.2858C78.7729 28.2858 78.5456 28.2638 78.3403 28.2198C78.1396 28.1758 77.9664 28.1049 77.8198 28.0071C77.6731 27.9045 77.5603 27.7725 77.4825 27.6111C77.4041 27.4498 77.3652 27.2518 77.3652 27.0171C77.3652 26.7922 77.4092 26.6016 77.4972 26.4451C77.5897 26.2887 77.7121 26.1641 77.8638 26.0711C78.0149 25.9782 78.1886 25.9122 78.3843 25.8731C78.5795 25.8291 78.7825 25.8071 78.9929 25.8071C79.1344 25.8071 79.2591 25.8145 79.3668 25.8291C79.479 25.8389 79.5693 25.8536 79.6381 25.8731V25.7705C79.6381 25.5847 79.5817 25.4356 79.4694 25.3231C79.3566 25.2107 79.1615 25.1545 78.8829 25.1545C78.6968 25.1545 78.5135 25.1691 78.333 25.1985C78.152 25.2229 77.9957 25.2596 77.8638 25.3085L77.7245 24.4285C77.7876 24.4089 77.866 24.3894 77.9591 24.3698C78.0567 24.3454 78.1616 24.3258 78.2743 24.3111C78.3866 24.2916 78.5039 24.2769 78.6263 24.2671C78.7532 24.2525 78.8801 24.2451 79.0075 24.2451ZM84.9953 28.2051H83.9029V26.6798H82.7665V28.2051H81.674V24.3478H82.7665V25.7851H83.9029V24.3478H84.9953V28.2051ZM89.3414 28.2051H88.2489V26.6798H87.1125V28.2051H86.0201V24.3478H87.1125V25.7851H88.2489V24.3478H89.3414V28.2051ZM91.9644 26.8338C91.8082 27.0636 91.6689 27.2958 91.5465 27.5305C91.4247 27.7602 91.3074 27.9851 91.1946 28.2051H90.0728C90.215 27.8874 90.3588 27.5965 90.5054 27.3325C90.652 27.0685 90.7942 26.8411 90.9306 26.6505C90.7254 26.5429 90.5618 26.4061 90.4394 26.2398C90.3176 26.0687 90.2561 25.8561 90.2561 25.6018C90.2561 25.1716 90.4101 24.8416 90.718 24.6118C91.031 24.3821 91.4614 24.2671 92.0084 24.2671C92.1308 24.2671 92.265 24.2721 92.4117 24.2818C92.5634 24.2916 92.7123 24.3062 92.8589 24.3258C93.0055 24.3454 93.1448 24.3674 93.2768 24.3918C93.4139 24.4114 93.5289 24.4334 93.6214 24.4578V28.2051H92.529V26.8338H91.9644ZM92.529 25.1325C92.4805 25.1276 92.4043 25.1227 92.3017 25.1178C92.199 25.1081 92.1111 25.1031 92.0377 25.1031C91.7693 25.1031 91.586 25.1496 91.4879 25.2425C91.3903 25.3305 91.3412 25.4454 91.3412 25.5871C91.3412 25.6751 91.361 25.7509 91.3999 25.8145C91.4394 25.8731 91.4907 25.9221 91.5538 25.9611C91.6176 25.9954 91.6886 26.0198 91.7665 26.0345C91.8449 26.0491 91.9233 26.0565 92.0011 26.0565H92.529V25.1325ZM95.579 22.6318V23.1745C95.579 23.4091 95.5592 23.6658 95.5203 23.9445C95.4859 24.2231 95.447 24.5042 95.403 24.7878H94.6772C94.6236 24.5042 94.5796 24.2231 94.5452 23.9445C94.5159 23.6658 94.5012 23.4067 94.5012 23.1671V22.6318H95.579ZM97.1773 22.6318V23.1745C97.1773 23.4091 97.1576 23.6658 97.1186 23.9445C97.0842 24.2231 97.0453 24.5042 97.0013 24.7878H96.2755C96.2219 24.5042 96.1779 24.2231 96.1435 23.9445C96.1142 23.6658 96.0995 23.4067 96.0995 23.1671V22.6318H97.1773ZM102.889 28.2051C102.787 28.0389 102.664 27.8605 102.523 27.6698C102.386 27.4742 102.235 27.2811 102.068 27.0905C101.907 26.8949 101.738 26.7091 101.562 26.5331C101.386 26.3522 101.21 26.1934 101.034 26.0565V28.2051H99.8906V23.1231H101.034V25.0445C101.333 24.7316 101.63 24.4065 101.929 24.0691C102.232 23.7269 102.513 23.4116 102.772 23.1231H104.128C103.782 23.5338 103.432 23.9298 103.08 24.3111C102.733 24.6925 102.366 25.0762 101.98 25.4625C102.386 25.7998 102.777 26.2007 103.153 26.6651C103.534 27.1296 103.899 27.6429 104.246 28.2051H102.889ZM107.967 23.1231H109.111V28.2051H107.967V26.0491H106.046V28.2051H104.903V23.1231H106.046V25.0665H107.967V23.1231ZM114.466 23.1231V28.2051H113.322V24.0911H111.431V28.2051H110.287V23.1231H114.466ZM58.9704 31.0933V31.636C58.9704 31.8707 58.9507 32.1273 58.9118 32.406C58.8773 32.6847 58.8384 32.9658 58.7944 33.2494H58.0686C58.015 32.9658 57.971 32.6847 57.9366 32.406C57.9073 32.1273 57.8926 31.8683 57.8926 31.6287V31.0933H58.9704ZM60.5687 31.0933V31.636C60.5687 31.8707 60.549 32.1273 60.5101 32.406C60.4757 32.6847 60.4368 32.9658 60.3928 33.2494H59.6669C59.6133 32.9658 59.5694 32.6847 59.5349 32.406C59.5056 32.1273 59.491 31.8683 59.491 31.6287V31.0933H60.5687ZM65.4111 31.5847V32.56H63.8787V36.6667H62.735V32.56H61.2026V31.5847H65.4111ZM67.4234 31.5847C67.5113 31.746 67.6117 31.9464 67.724 32.186C67.8413 32.4207 67.9614 32.6774 68.0832 32.956C68.2107 33.2298 68.3353 33.5109 68.4571 33.7994C68.5795 34.0878 68.6946 34.3591 68.8017 34.6134C68.9094 34.3591 69.0245 34.0878 69.1463 33.7994C69.2687 33.5109 69.3911 33.2298 69.5129 32.956C69.6404 32.6774 69.7599 32.4207 69.8722 32.186C69.9895 31.9464 70.0921 31.746 70.1801 31.5847H71.2212C71.2703 31.922 71.3143 32.3009 71.3532 32.7214C71.3972 33.1369 71.4338 33.572 71.4631 34.0267C71.4976 34.4764 71.5269 34.9287 71.5511 35.3834C71.5805 35.838 71.6053 36.2658 71.6244 36.6667H70.51C70.4954 36.1729 70.4762 35.6351 70.4514 35.0534C70.4271 34.4716 70.3905 33.8849 70.3414 33.2934C70.2534 33.4987 70.1558 33.726 70.0481 33.9754C69.941 34.2247 69.8332 34.474 69.7255 34.7234C69.6229 34.9727 69.5231 35.2123 69.4249 35.442C69.3274 35.6669 69.2444 35.86 69.1756 36.0214H68.3765C68.3082 35.86 68.2253 35.6669 68.1272 35.442C68.0296 35.2123 67.927 34.9727 67.8193 34.7234C67.7166 34.474 67.6117 34.2247 67.504 33.9754C67.3968 33.726 67.2987 33.4987 67.2107 33.2934C67.1622 33.8849 67.1256 34.4716 67.1008 35.0534C67.0765 35.6351 67.0568 36.1729 67.0421 36.6667H65.9277C65.9474 36.2658 65.9694 35.838 65.9937 35.3834C66.023 34.9287 66.0523 34.4764 66.0816 34.0267C66.116 33.572 66.1527 33.1369 66.1916 32.7214C66.2356 32.3009 66.2824 31.922 66.3309 31.5847H67.4234ZM73.6147 34.122C73.6147 34.3713 73.6441 34.5963 73.7027 34.7967C73.7664 34.9971 73.8544 35.1707 73.9667 35.3174C74.084 35.4591 74.2261 35.5691 74.3919 35.6474C74.5583 35.7256 74.7489 35.7647 74.9638 35.7647C75.1741 35.7647 75.3625 35.7256 75.5283 35.6474C75.6998 35.5691 75.8413 35.4591 75.9536 35.3174C76.0709 35.1707 76.1589 34.9971 76.2175 34.7967C76.2812 34.5963 76.3128 34.3713 76.3128 34.122C76.3128 33.8727 76.2812 33.6478 76.2175 33.4473C76.1589 33.242 76.0709 33.0684 75.9536 32.9267C75.8413 32.78 75.6998 32.6676 75.5283 32.5893C75.3625 32.5111 75.1741 32.472 74.9638 32.472C74.7489 32.472 74.5583 32.5136 74.3919 32.5967C74.2261 32.6749 74.084 32.7873 73.9667 32.934C73.8544 33.0758 73.7664 33.2493 73.7027 33.4547C73.6441 33.6551 73.6147 33.8776 73.6147 34.122ZM77.4932 34.122C77.4932 34.5571 77.4272 34.9409 77.2953 35.2733C77.1684 35.6009 76.9924 35.8771 76.7674 36.102C76.5429 36.322 76.2739 36.4883 75.9609 36.6007C75.653 36.7131 75.3208 36.7694 74.9638 36.7694C74.6169 36.7694 74.2893 36.7131 73.9813 36.6007C73.6734 36.4883 73.4049 36.322 73.1748 36.102C72.9453 35.8771 72.7643 35.6009 72.6323 35.2733C72.5003 34.9409 72.4343 34.5571 72.4343 34.122C72.4343 33.6869 72.5031 33.3056 72.6396 32.978C72.7767 32.6456 72.96 32.3669 73.1895 32.142C73.4241 31.9171 73.6931 31.7484 73.996 31.636C74.3039 31.5236 74.6265 31.4674 74.9638 31.4674C75.3112 31.4674 75.6383 31.5236 75.9462 31.636C76.2542 31.7484 76.5232 31.9171 76.7527 32.142C76.9828 32.3669 77.1633 32.6456 77.2953 32.978C77.4272 33.3056 77.4932 33.6869 77.4932 34.122ZM81.0661 31.0933V31.636C81.0661 31.8707 81.0463 32.1273 81.0074 32.406C80.973 32.6847 80.9341 32.9658 80.8901 33.2494H80.1642C80.1101 32.9658 80.0661 32.6847 80.0323 32.406C80.003 32.1273 79.9883 31.8683 79.9883 31.6287V31.0933H81.0661ZM82.6644 31.0933V31.636C82.6644 31.8707 82.6446 32.1273 82.6057 32.406C82.5713 32.6847 82.5324 32.9658 82.4884 33.2494H81.7626C81.7084 32.9658 81.6644 32.6847 81.6306 32.406C81.6013 32.1273 81.5866 31.8683 81.5866 31.6287V31.0933H82.6644ZM85.9332 36.7694C85.107 36.7694 84.4764 36.5396 84.0416 36.08C83.6113 35.6204 83.3964 34.9678 83.3964 34.122C83.3964 33.7016 83.4624 33.3276 83.5944 33C83.7264 32.6676 83.9068 32.3889 84.1369 32.164C84.3665 31.9343 84.64 31.7607 84.9581 31.6434C85.2756 31.526 85.6202 31.4674 85.9919 31.4674C86.2067 31.4674 86.4024 31.4844 86.5784 31.5187C86.7544 31.548 86.9083 31.5847 87.0403 31.6287C87.1723 31.6678 87.2823 31.7094 87.3702 31.7534C87.4582 31.7974 87.5214 31.8316 87.5609 31.856L87.2309 32.78C87.0741 32.6969 86.8909 32.626 86.6811 32.5674C86.4758 32.5087 86.2411 32.4794 85.9772 32.4794C85.8012 32.4794 85.6275 32.5087 85.4566 32.5674C85.2903 32.626 85.1414 32.7214 85.0094 32.8534C84.882 32.9804 84.7793 33.1467 84.7015 33.352C84.6231 33.5574 84.5842 33.8067 84.5842 34.1C84.5842 34.3347 84.6084 34.5547 84.6575 34.76C84.7111 34.9604 84.794 35.134 84.9068 35.2807C85.0241 35.4274 85.1752 35.5447 85.3613 35.6327C85.5469 35.7158 85.7719 35.7574 86.0359 35.7574C86.2017 35.7574 86.3511 35.7476 86.4831 35.728C86.6151 35.7084 86.7324 35.6864 86.835 35.662C86.9377 35.6327 87.0279 35.6009 87.1063 35.5667C87.1841 35.5324 87.2552 35.5007 87.3189 35.4714L87.6342 36.388C87.4729 36.4858 87.2456 36.5738 86.9523 36.652C86.6591 36.7303 86.319 36.7694 85.9332 36.7694ZM89.7192 31.5847C89.8072 31.746 89.9076 31.9464 90.0198 32.186C90.1371 32.4207 90.2573 32.6774 90.3791 32.956C90.5065 33.2298 90.6312 33.5109 90.753 33.7994C90.8754 34.0878 90.9904 34.3591 91.0976 34.6134C91.2053 34.3591 91.3204 34.0878 91.4422 33.7994C91.5646 33.5109 91.6869 33.2298 91.8088 32.956C91.9362 32.6774 92.0558 32.4207 92.168 32.186C92.2853 31.9464 92.388 31.746 92.476 31.5847H93.5171C93.5661 31.922 93.6101 32.3009 93.649 32.7214C93.693 33.1369 93.7297 33.572 93.759 34.0267C93.7934 34.4764 93.8227 34.9287 93.847 35.3834C93.8763 35.838 93.9011 36.2658 93.9203 36.6667H92.8059C92.7912 36.1729 92.772 35.6351 92.7472 35.0534C92.723 34.4716 92.6863 33.8849 92.6373 33.2934C92.5493 33.4987 92.4517 33.726 92.344 33.9754C92.2368 34.2247 92.1291 34.474 92.0214 34.7234C91.9187 34.9727 91.8189 35.2123 91.7208 35.442C91.6232 35.6669 91.5403 35.86 91.4715 36.0214H90.6723C90.6041 35.86 90.5212 35.6669 90.4231 35.442C90.3255 35.2123 90.2229 34.9727 90.1151 34.7234C90.0125 34.474 89.9076 34.2247 89.7999 33.9754C89.6927 33.726 89.5946 33.4987 89.5066 33.2934C89.4581 33.8849 89.4214 34.4716 89.3966 35.0534C89.3724 35.6351 89.3526 36.1729 89.338 36.6667H88.2235C88.2433 36.2658 88.2653 35.838 88.2895 35.3834C88.3188 34.9287 88.3482 34.4764 88.3775 34.0267C88.4119 33.572 88.4486 33.1369 88.4875 32.7214C88.5315 32.3009 88.5783 31.922 88.6268 31.5847H89.7192ZM95.9106 34.122C95.9106 34.3713 95.9399 34.5963 95.9986 34.7967C96.0623 34.9971 96.1503 35.1707 96.2625 35.3174C96.3798 35.4591 96.522 35.5691 96.6878 35.6474C96.8541 35.7256 97.0448 35.7647 97.2596 35.7647C97.47 35.7647 97.6584 35.7256 97.8242 35.6474C97.9956 35.5691 98.1372 35.4591 98.2494 35.3174C98.3667 35.1707 98.4547 34.9971 98.5134 34.7967C98.5771 34.5963 98.6087 34.3713 98.6087 34.122C98.6087 33.8727 98.5771 33.6478 98.5134 33.4473C98.4547 33.242 98.3667 33.0684 98.2494 32.9267C98.1372 32.78 97.9956 32.6676 97.8242 32.5893C97.6584 32.5111 97.47 32.472 97.2596 32.472C97.0448 32.472 96.8541 32.5136 96.6878 32.5967C96.522 32.6749 96.3798 32.7873 96.2625 32.934C96.1503 33.0758 96.0623 33.2493 95.9986 33.4547C95.9399 33.6551 95.9106 33.8776 95.9106 34.122ZM99.7891 34.122C99.7891 34.5571 99.7231 34.9409 99.5911 35.2733C99.4642 35.6009 99.2883 35.8771 99.0633 36.102C98.8388 36.322 98.5698 36.4883 98.2568 36.6007C97.9488 36.7131 97.6166 36.7694 97.2596 36.7694C96.9128 36.7694 96.5851 36.7131 96.2772 36.6007C95.9693 36.4883 95.7008 36.322 95.4707 36.102C95.2412 35.8771 95.0601 35.6009 94.9281 35.2733C94.7962 34.9409 94.7302 34.5571 94.7302 34.122C94.7302 33.6869 94.799 33.3056 94.9355 32.978C95.0725 32.6456 95.2558 32.3669 95.4854 32.142C95.72 31.9171 95.989 31.7484 96.2918 31.636C96.5998 31.5236 96.9224 31.4674 97.2596 31.4674C97.6071 31.4674 97.9342 31.5236 98.2421 31.636C98.55 31.7484 98.819 31.9171 99.0486 32.142C99.2787 32.3669 99.4592 32.6456 99.5911 32.978C99.7231 33.3056 99.7891 33.6869 99.7891 34.122ZM102.964 32.5527C102.95 32.8803 102.93 33.2103 102.906 33.5427C102.886 33.8703 102.847 34.188 102.788 34.496C102.735 34.804 102.654 35.0924 102.546 35.3614C102.444 35.6303 102.299 35.8673 102.114 36.0727C101.933 36.278 101.706 36.4418 101.432 36.564C101.158 36.6863 100.823 36.7547 100.428 36.7694L100.303 35.772C100.655 35.7329 100.926 35.6449 101.117 35.508C101.307 35.3663 101.452 35.1511 101.549 34.8627C101.672 34.5058 101.757 34.0463 101.806 33.484C101.859 32.9169 101.887 32.2838 101.887 31.5847H105.354V36.6667H104.211V32.5527H102.964ZM107.386 31.0933V31.636C107.386 31.8707 107.366 32.1273 107.327 32.406C107.293 32.6847 107.254 32.9658 107.21 33.2494H106.484C106.43 32.9658 106.386 32.6847 106.352 32.406C106.323 32.1273 106.308 31.8683 106.308 31.6287V31.0933H107.386ZM108.984 31.0933V31.636C108.984 31.8707 108.965 32.1273 108.926 32.406C108.891 32.6847 108.852 32.9658 108.808 33.2494H108.082C108.028 32.9658 107.984 32.6847 107.95 32.406C107.921 32.1273 107.906 31.8683 107.906 31.6287V31.0933H108.984Z" fill="#4DBA91"/>
</g>
</svg>
