<svg width="211" height="78" viewBox="0 0 211 78" fill="none" xmlns="http://www.w3.org/2000/svg">
<path d="M70.7886 3.48079C70.786 3.47882 70.7828 3.47816 70.7803 3.47619C67.3415 1.20258 63.3722 -1.00972e-05 59.3005 -1.00972e-05C50.9913 -1.00972e-05 43.7797 4.92482 40.2827 12.0825C36.7863 4.92482 29.5747 -1.00972e-05 21.2655 -1.00972e-05C17.1938 -1.00972e-05 13.2245 1.20192 9.78507 3.47619C9.78251 3.47816 9.77931 3.47882 9.77675 3.48079C3.65444 7.53197 0 14.4021 0 21.8585C0 26.0498 1.17186 30.1352 3.39012 33.6732C3.39012 33.6732 3.39012 33.6738 3.39076 33.6738C3.40036 33.6903 3.40868 33.7074 3.41892 33.7238C3.4202 33.7265 3.42148 33.7285 3.42276 33.7304C3.45924 33.7956 3.497 33.8613 3.53604 33.9238C3.5514 33.9488 3.56676 33.9732 3.58212 33.9975C3.58276 33.9982 3.5834 33.9988 3.58404 33.9988C3.6858 34.1574 3.7946 34.312 3.90596 34.4646C3.95781 34.5363 4.00964 34.6074 4.06212 34.6778L4.07557 34.6962L4.34053 35.0633L4.36165 35.0929C4.46789 35.2435 4.57477 35.3942 4.68613 35.5422C4.73798 35.6119 4.79109 35.6804 4.84549 35.7481C4.84677 35.7508 4.84869 35.7527 4.85061 35.7554C4.85061 35.7554 4.85189 35.756 4.85253 35.7567C4.85445 35.76 4.85637 35.7626 4.85893 35.7652C4.87301 35.783 4.88773 35.8001 4.90309 35.8185C4.95238 35.8771 5.00806 35.9396 5.0791 36.0178C5.42278 36.4343 5.79783 36.8783 6.27783 37.3698L23.2419 53.5699V50.416V47.2642V38.3211H39.5966V34.5087V24.0472V21.5091H40.2654H40.3H42.5477H57.0438V34.5087V38.3211H66.6862H69.9886H73.2891L74.3483 37.3093C74.7758 36.8685 75.1541 36.4205 75.4991 36.0027C75.4997 36.0021 75.4997 36.0014 75.5003 36.0007C75.5029 35.9975 75.5061 35.9955 75.5087 35.9922C75.5099 35.9909 75.5112 35.9902 75.5125 35.9889C75.5125 35.9882 75.5131 35.9882 75.5131 35.9882C75.5138 35.9869 75.5151 35.9863 75.5157 35.9856C75.5215 35.9797 75.5259 35.9738 75.5311 35.9672C75.5733 35.9211 75.6155 35.8744 75.6565 35.8257C75.6603 35.8264 75.6584 35.8238 75.6591 35.8231C75.6751 35.804 75.6911 35.785 75.7064 35.7652C75.7077 35.7639 75.7083 35.7626 75.7096 35.7613C75.7103 35.7606 75.7115 35.76 75.7122 35.7586C75.7128 35.758 75.7128 35.7573 75.7135 35.7567C75.7685 35.6883 75.8229 35.6179 75.8754 35.5475C75.9887 35.3981 76.0962 35.2455 76.2037 35.0929L76.237 35.0462L76.5019 34.6797C76.5391 34.6297 76.5762 34.5791 76.6133 34.5278C76.7106 34.3955 76.8028 34.26 76.8943 34.1238C76.9212 34.0837 76.9538 34.0436 76.9794 34.0034C77.0018 33.9686 77.0248 33.9311 77.0479 33.8923C77.0511 33.8877 77.0536 33.8837 77.0568 33.8784C77.0575 33.8778 77.0575 33.8765 77.0581 33.8765C77.0786 33.8409 77.0991 33.8067 77.1196 33.7719C77.1215 33.7679 77.124 33.764 77.126 33.76C77.1279 33.7574 77.1298 33.7541 77.1311 33.7515C77.1484 33.7219 77.1618 33.6988 77.1816 33.6646C77.1925 33.6469 77.2008 33.6285 77.2117 33.6107C79.4044 30.0871 80.5654 26.0254 80.5654 21.8585C80.5654 14.4021 76.9103 7.53197 70.7886 3.48079Z" fill="white"/>
<path d="M29.356 56.2548H26.0536L38.7526 68.3827C39.0016 68.6202 39.2921 68.7807 39.5968 68.8813V66.0347V62.8815V56.2548H32.6572H29.356Z" fill="white"/>
<path d="M75.2087 56.64C72.0484 56.8887 70.49 57.2676 68.9968 56.2545C68.3229 55.7979 67.663 55.0591 66.8752 53.896C65.912 52.4737 64.5155 50.4244 62.8419 48.2982C62.3798 47.71 61.894 47.1179 61.3923 46.5305C60.9001 45.9542 60.3906 45.3871 59.8671 44.8332C58.9628 43.876 58.0175 42.9707 57.0434 42.1688C55.7608 41.1122 54.4328 40.2327 53.0933 39.6741C51.643 39.0695 50.3329 38.632 49.1451 38.3209C45.6494 37.4045 43.2205 37.586 41.4695 37.865C41.9674 37.986 42.537 38.1386 43.1533 38.3209C47.1975 39.5129 53.3883 42.0385 56.3836 46.2719C51.2053 43.749 47.5374 42.6957 44.0045 42.8069C46.9422 44.199 51.565 46.3726 55.0351 49.4475C55.6117 49.9586 56.1538 50.4948 56.653 51.056C56.7842 51.2033 56.9193 51.3494 57.0434 51.5C57.286 51.7928 57.517 52.0921 57.7321 52.3987C57.4901 52.2309 57.2623 52.0744 57.0434 51.9237C56.7752 51.7395 56.5237 51.5678 56.2856 51.4066C55.508 50.8823 54.8757 50.4777 54.2978 50.1521C52.7342 49.2725 51.5586 48.9718 48.9403 48.462C50.2734 49.4929 51.5848 50.4507 52.884 51.502C53.4677 51.9744 54.0488 52.4658 54.6274 52.9908C55.174 53.4862 55.7186 54.0125 56.2626 54.5815C56.5231 54.8545 56.7836 55.1374 57.0434 55.4315C57.277 55.6959 57.5106 55.9716 57.7442 56.2545C58.0911 56.6755 58.4373 57.1137 58.7842 57.5834C62.0201 61.9628 63.0921 67.091 57.7653 71.5454C57.5279 71.7441 57.2873 71.9329 57.0434 72.1158C56.5884 72.4585 56.1167 72.773 55.622 73.0658C52.7022 74.7933 48.8756 75.7203 41.4695 76.6005C41.4695 76.6005 52.349 80.0103 61.5535 76.1847C70.7588 72.3592 73.2669 64.8739 73.8334 63.7654C74.3998 62.6562 75.7476 60.4103 77.8244 60.6879C79.9013 60.9648 81.9512 62.2681 81.9512 62.2681C81.9512 62.2681 79.7937 56.2801 75.2087 56.64" fill="white"/>
<path d="M88.7744 42.0027C88.1273 42.8895 85.4841 44.498 83.6505 45.8841C84.3513 44.8302 84.567 44.4421 87.8572 40.9494C91.1482 37.4561 92.8736 31.5793 92.2803 32.9096C92.247 32.9846 92.2125 33.0569 92.1754 33.1293C91.545 34.3385 90.2163 35.2621 84.5132 39.3968C78.4722 43.777 75.9973 46.8683 74.076 50.382C73.8328 50.8261 73.6075 51.2359 73.3982 51.6142C71.9518 54.2299 71.2983 55.3095 71.2983 55.3095C72.0542 55.1391 72.7416 55.0272 73.3982 54.945C76.1624 54.5976 78.1509 54.995 80.0901 56.0022C81.9737 53.0641 85.5379 48.8222 85.5379 48.8222C85.5379 48.8222 84.837 48.9334 81.9513 50.0425C85.9155 47.2703 87.264 44.7749 88.7744 42.0027Z" fill="white"/>
<path d="M54.0911 71.8325C50.0373 72.6041 48.3016 72.9285 46.6959 73.066C45.5234 73.166 44.42 73.1673 42.5358 73.1673C41.6776 73.1673 40.8763 73.1258 40.1012 73.066C39.9335 73.0528 39.7607 73.0436 39.5969 73.0285C36.5716 72.7436 34.1159 72.0555 31.76 71.3331C31.76 71.3331 34.5652 73.8278 37.6666 74.9935C41.2609 75.0277 46.1058 75.2481 51.4805 73.066C52.3388 72.718 53.2092 72.314 54.0911 71.8325Z" fill="white"/>
<path d="M106.043 20.117C105.549 20.117 105.055 20.0997 104.561 20.065C104.076 20.039 103.569 19.9697 103.04 19.857V11.121C103.456 11.043 103.911 10.9867 104.405 10.952C104.899 10.9087 105.358 10.887 105.783 10.887C106.355 10.887 106.879 10.9303 107.356 11.017C107.841 11.095 108.257 11.2337 108.604 11.433C108.951 11.6323 109.219 11.8967 109.41 12.226C109.609 12.5467 109.709 12.9453 109.709 13.422C109.709 14.1413 109.362 14.709 108.669 15.125C109.241 15.3417 109.631 15.6363 109.839 16.009C110.047 16.3817 110.151 16.802 110.151 17.27C110.151 18.2147 109.804 18.9253 109.111 19.402C108.426 19.8787 107.404 20.117 106.043 20.117ZM105.016 16.074V18.401C105.163 18.4183 105.324 18.4313 105.497 18.44C105.67 18.4487 105.861 18.453 106.069 18.453C106.676 18.453 107.165 18.3663 107.538 18.193C107.911 18.0197 108.097 17.699 108.097 17.231C108.097 16.815 107.941 16.5203 107.629 16.347C107.317 16.165 106.871 16.074 106.29 16.074H105.016ZM105.016 14.527H106.004C106.628 14.527 107.074 14.449 107.343 14.293C107.612 14.1283 107.746 13.8683 107.746 13.513C107.746 13.149 107.607 12.8933 107.33 12.746C107.053 12.5987 106.645 12.525 106.108 12.525C105.935 12.525 105.748 12.5293 105.549 12.538C105.35 12.538 105.172 12.5467 105.016 12.564V14.527ZM119.184 10.991V20H117.156V12.707H113.802V20H111.774V10.991H119.184ZM125.915 10.12V11.082C125.915 11.498 125.88 11.953 125.811 12.447C125.75 12.941 125.681 13.4393 125.603 13.942H124.316C124.22 13.4393 124.142 12.941 124.082 12.447C124.03 11.953 124.004 11.4937 124.004 11.069V10.12H125.915ZM128.749 10.12V11.082C128.749 11.498 128.714 11.953 128.645 12.447C128.584 12.941 128.515 13.4393 128.437 13.942H127.15C127.054 13.4393 126.976 12.941 126.916 12.447C126.864 11.953 126.838 11.4937 126.838 11.069V10.12H128.749ZM133.55 12.707C133.524 13.2877 133.49 13.8727 133.446 14.462C133.412 15.0427 133.342 15.606 133.238 16.152C133.143 16.698 133 17.2093 132.809 17.686C132.627 18.1627 132.372 18.583 132.042 18.947C131.722 19.311 131.319 19.6013 130.833 19.818C130.348 20.0347 129.754 20.156 129.052 20.182L128.831 18.414C129.455 18.3447 129.936 18.1887 130.274 17.946C130.612 17.6947 130.868 17.3133 131.041 16.802C131.258 16.1693 131.41 15.3547 131.496 14.358C131.592 13.3527 131.639 12.2303 131.639 10.991H137.788V20H135.76V12.707H133.55ZM141.676 20H139.739V13.162H141.676V20ZM141.858 11.186C141.858 11.5413 141.741 11.823 141.507 12.031C141.282 12.2303 141.013 12.33 140.701 12.33C140.389 12.33 140.116 12.2303 139.882 12.031C139.657 11.823 139.544 11.5413 139.544 11.186C139.544 10.8307 139.657 10.5533 139.882 10.354C140.116 10.146 140.389 10.042 140.701 10.042C141.013 10.042 141.282 10.146 141.507 10.354C141.741 10.5533 141.858 10.8307 141.858 11.186ZM145.434 15.554C145.625 15.372 145.824 15.1727 146.032 14.956C146.249 14.7393 146.457 14.527 146.656 14.319C146.855 14.1023 147.046 13.8943 147.228 13.695C147.41 13.4957 147.57 13.318 147.709 13.162H150.062C149.889 13.344 149.672 13.5693 149.412 13.838C149.161 14.1067 148.892 14.3883 148.606 14.683C148.32 14.969 148.03 15.255 147.735 15.541C147.449 15.827 147.176 16.0827 146.916 16.308C147.176 16.5073 147.453 16.7543 147.748 17.049C148.043 17.3437 148.329 17.66 148.606 17.998C148.892 18.336 149.161 18.6783 149.412 19.025C149.672 19.3717 149.893 19.6967 150.075 20H147.865C147.709 19.766 147.531 19.5233 147.332 19.272C147.133 19.012 146.925 18.7607 146.708 18.518C146.491 18.2667 146.27 18.0327 146.045 17.816C145.828 17.5993 145.625 17.413 145.434 17.257V20H143.497V13.162H145.434V15.554ZM153.6 18.648C153.791 18.648 153.973 18.6437 154.146 18.635C154.319 18.6263 154.458 18.6133 154.562 18.596V17.127C154.484 17.1097 154.367 17.0923 154.211 17.075C154.055 17.0577 153.912 17.049 153.782 17.049C153.6 17.049 153.427 17.062 153.262 17.088C153.106 17.1053 152.967 17.1443 152.846 17.205C152.725 17.2657 152.629 17.348 152.56 17.452C152.491 17.556 152.456 17.686 152.456 17.842C152.456 18.1453 152.556 18.3577 152.755 18.479C152.963 18.5917 153.245 18.648 153.6 18.648ZM153.444 12.98C154.016 12.98 154.493 13.045 154.874 13.175C155.255 13.305 155.559 13.4913 155.784 13.734C156.018 13.9767 156.183 14.2713 156.278 14.618C156.373 14.9647 156.421 15.3503 156.421 15.775V19.805C156.144 19.8657 155.758 19.935 155.264 20.013C154.77 20.0997 154.172 20.143 153.47 20.143C153.028 20.143 152.625 20.104 152.261 20.026C151.906 19.948 151.598 19.8223 151.338 19.649C151.078 19.467 150.879 19.233 150.74 18.947C150.601 18.661 150.532 18.31 150.532 17.894C150.532 17.4953 150.61 17.1573 150.766 16.88C150.931 16.6027 151.147 16.3817 151.416 16.217C151.685 16.0523 151.992 15.9353 152.339 15.866C152.686 15.788 153.045 15.749 153.418 15.749C153.669 15.749 153.89 15.762 154.081 15.788C154.28 15.8053 154.441 15.8313 154.562 15.866V15.684C154.562 15.3547 154.462 15.0903 154.263 14.891C154.064 14.6917 153.717 14.592 153.223 14.592C152.894 14.592 152.569 14.618 152.248 14.67C151.927 14.7133 151.65 14.7783 151.416 14.865L151.169 13.305C151.282 13.2703 151.42 13.2357 151.585 13.201C151.758 13.1577 151.945 13.123 152.144 13.097C152.343 13.0623 152.551 13.0363 152.768 13.019C152.993 12.993 153.219 12.98 153.444 12.98ZM162.554 16.633C162.554 16.035 162.419 15.5583 162.151 15.203C161.882 14.839 161.483 14.657 160.955 14.657C160.781 14.657 160.621 14.6657 160.474 14.683C160.326 14.6917 160.205 14.7047 160.11 14.722V18.219C160.231 18.297 160.387 18.362 160.578 18.414C160.777 18.466 160.976 18.492 161.176 18.492C162.094 18.492 162.554 17.8723 162.554 16.633ZM164.53 16.581C164.53 17.1097 164.465 17.5907 164.335 18.024C164.205 18.4573 164.014 18.83 163.763 19.142C163.511 19.454 163.199 19.6967 162.827 19.87C162.454 20.0433 162.025 20.13 161.54 20.13C161.271 20.13 161.02 20.104 160.786 20.052C160.552 20 160.326 19.9263 160.11 19.831V22.405H158.173V13.396C158.346 13.344 158.545 13.2963 158.771 13.253C158.996 13.201 159.23 13.1577 159.473 13.123C159.724 13.0883 159.975 13.0623 160.227 13.045C160.487 13.019 160.734 13.006 160.968 13.006C161.531 13.006 162.034 13.0927 162.476 13.266C162.918 13.4307 163.29 13.669 163.594 13.981C163.897 14.2843 164.127 14.657 164.283 15.099C164.447 15.541 164.53 16.035 164.53 16.581ZM171.907 20H169.97V17.296H167.955V20H166.018V13.162H167.955V15.71H169.97V13.162H171.907V20ZM176.558 17.569C176.281 17.9763 176.034 18.388 175.817 18.804C175.601 19.2113 175.393 19.61 175.193 20H173.204C173.456 19.4367 173.711 18.921 173.971 18.453C174.231 17.985 174.483 17.582 174.725 17.244C174.361 17.0533 174.071 16.8107 173.854 16.516C173.638 16.2127 173.529 15.8357 173.529 15.385C173.529 14.6223 173.802 14.0373 174.348 13.63C174.903 13.2227 175.666 13.019 176.636 13.019C176.853 13.019 177.091 13.0277 177.351 13.045C177.62 13.0623 177.884 13.0883 178.144 13.123C178.404 13.1577 178.651 13.1967 178.885 13.24C179.128 13.2747 179.332 13.3137 179.496 13.357V20H177.559V17.569H176.558ZM177.559 14.553C177.473 14.5443 177.338 14.5357 177.156 14.527C176.974 14.5097 176.818 14.501 176.688 14.501C176.212 14.501 175.887 14.5833 175.713 14.748C175.54 14.904 175.453 15.1077 175.453 15.359C175.453 15.515 175.488 15.6493 175.557 15.762C175.627 15.866 175.718 15.9527 175.83 16.022C175.943 16.0827 176.069 16.126 176.207 16.152C176.346 16.178 176.485 16.191 176.623 16.191H177.559V14.553ZM104.847 35H102.91V28.162H104.847V35ZM105.029 26.186C105.029 26.5413 104.912 26.823 104.678 27.031C104.453 27.2303 104.184 27.33 103.872 27.33C103.56 27.33 103.287 27.2303 103.053 27.031C102.828 26.823 102.715 26.5413 102.715 26.186C102.715 25.8307 102.828 25.5533 103.053 25.354C103.287 25.146 103.56 25.042 103.872 25.042C104.184 25.042 104.453 25.146 104.678 25.354C104.912 25.5533 105.029 25.8307 105.029 26.186ZM112.557 35H110.62V32.296H108.605V35H106.668V28.162H108.605V30.71H110.62V28.162H112.557V35ZM120.029 29.748H117.845V35H115.908V29.748H113.724V28.162H120.029V29.748ZM120.879 31.633C120.879 31.0263 120.97 30.4977 121.152 30.047C121.343 29.5877 121.59 29.2063 121.893 28.903C122.196 28.5997 122.543 28.37 122.933 28.214C123.332 28.058 123.739 27.98 124.155 27.98C125.126 27.98 125.893 28.279 126.456 28.877C127.019 29.4663 127.301 30.3373 127.301 31.49C127.301 31.6027 127.297 31.7283 127.288 31.867C127.279 31.997 127.271 32.114 127.262 32.218H122.868C122.911 32.6167 123.098 32.933 123.427 33.167C123.756 33.401 124.198 33.518 124.753 33.518C125.108 33.518 125.455 33.4877 125.793 33.427C126.14 33.3577 126.421 33.2753 126.638 33.18L126.898 34.753C126.794 34.805 126.655 34.857 126.482 34.909C126.309 34.961 126.114 35.0043 125.897 35.039C125.689 35.0823 125.464 35.117 125.221 35.143C124.978 35.169 124.736 35.182 124.493 35.182C123.878 35.182 123.34 35.091 122.881 34.909C122.43 34.727 122.053 34.48 121.75 34.168C121.455 33.8473 121.234 33.4703 121.087 33.037C120.948 32.6037 120.879 32.1357 120.879 31.633ZM125.429 30.892C125.42 30.7273 125.39 30.567 125.338 30.411C125.295 30.255 125.221 30.1163 125.117 29.995C125.022 29.8737 124.896 29.774 124.74 29.696C124.593 29.618 124.406 29.579 124.181 29.579C123.964 29.579 123.778 29.618 123.622 29.696C123.466 29.7653 123.336 29.8607 123.232 29.982C123.128 30.1033 123.046 30.2463 122.985 30.411C122.933 30.567 122.894 30.7273 122.868 30.892H125.429ZM134.685 35H132.748V32.296H130.733V35H128.796V28.162H130.733V30.71H132.748V28.162H134.685V35ZM136.177 31.581C136.177 31.087 136.255 30.6233 136.411 30.19C136.575 29.748 136.809 29.3667 137.113 29.046C137.416 28.7167 137.784 28.4567 138.218 28.266C138.651 28.0753 139.145 27.98 139.7 27.98C140.064 27.98 140.397 28.0147 140.701 28.084C141.004 28.1447 141.299 28.2357 141.585 28.357L141.182 29.904C141 29.8347 140.8 29.774 140.584 29.722C140.367 29.67 140.124 29.644 139.856 29.644C139.284 29.644 138.855 29.8217 138.569 30.177C138.291 30.5323 138.153 31.0003 138.153 31.581C138.153 32.1963 138.283 32.673 138.543 33.011C138.811 33.349 139.275 33.518 139.934 33.518C140.168 33.518 140.419 33.4963 140.688 33.453C140.956 33.4097 141.203 33.3403 141.429 33.245L141.702 34.831C141.476 34.9263 141.195 35.0087 140.857 35.078C140.519 35.1473 140.146 35.182 139.739 35.182C139.115 35.182 138.577 35.091 138.127 34.909C137.676 34.7183 137.303 34.4627 137.009 34.142C136.723 33.8213 136.51 33.4443 136.372 33.011C136.242 32.569 136.177 32.0923 136.177 31.581ZM149.229 28.162V35H147.279C147.279 34.5667 147.283 34.1377 147.292 33.713C147.3 33.2797 147.309 32.881 147.318 32.517C147.326 32.153 147.335 31.8367 147.344 31.568C147.361 31.2907 147.37 31.087 147.37 30.957C147.118 31.3123 146.867 31.672 146.616 32.036C146.364 32.4 146.122 32.7597 145.888 33.115C145.662 33.4617 145.446 33.7953 145.238 34.116C145.038 34.4367 144.861 34.7313 144.705 35H143.002V28.162H144.939C144.939 28.5953 144.934 29.0113 144.926 29.41C144.926 29.8 144.921 30.1553 144.913 30.476C144.904 30.7967 144.895 31.0783 144.887 31.321C144.878 31.555 144.874 31.737 144.874 31.867C145.394 31.1043 145.87 30.4197 146.304 29.813C146.746 29.2063 147.175 28.656 147.591 28.162H149.229ZM152.988 33.57C153.109 33.5873 153.269 33.6047 153.469 33.622C153.677 33.6307 153.867 33.635 154.041 33.635C154.474 33.635 154.812 33.583 155.055 33.479C155.297 33.3663 155.419 33.167 155.419 32.881C155.419 32.6037 155.306 32.413 155.081 32.309C154.864 32.1963 154.543 32.14 154.119 32.14H152.988V33.57ZM154.08 30.84C154.4 30.84 154.66 30.801 154.86 30.723C155.059 30.6363 155.159 30.4543 155.159 30.177C155.159 29.917 155.046 29.7393 154.821 29.644C154.595 29.5487 154.301 29.501 153.937 29.501C153.815 29.501 153.655 29.5097 153.456 29.527C153.265 29.5357 153.109 29.5487 152.988 29.566V30.84H154.08ZM154.015 35.13C153.772 35.13 153.512 35.1213 153.235 35.104C152.957 35.0867 152.684 35.0607 152.416 35.026C152.147 35 151.891 34.9697 151.649 34.935C151.415 34.8917 151.215 34.8527 151.051 34.818V28.266C151.215 28.2313 151.415 28.201 151.649 28.175C151.891 28.1403 152.147 28.11 152.416 28.084C152.684 28.058 152.957 28.0407 153.235 28.032C153.512 28.0147 153.772 28.006 154.015 28.006C154.578 28.006 155.05 28.0623 155.432 28.175C155.822 28.2877 156.134 28.435 156.368 28.617C156.61 28.799 156.784 29.0027 156.888 29.228C156.992 29.4533 157.044 29.6787 157.044 29.904C157.044 30.2073 156.97 30.4847 156.823 30.736C156.675 30.9873 156.489 31.1693 156.264 31.282C156.385 31.334 156.506 31.4077 156.628 31.503C156.758 31.5983 156.875 31.7153 156.979 31.854C157.083 31.984 157.165 32.1443 157.226 32.335C157.295 32.517 157.33 32.7293 157.33 32.972C157.33 33.2493 157.273 33.518 157.161 33.778C157.057 34.038 156.875 34.2677 156.615 34.467C156.355 34.6663 156.012 34.8267 155.588 34.948C155.163 35.0693 154.639 35.13 154.015 35.13ZM164.709 35H162.772V32.296H160.757V35H158.82V28.162H160.757V30.71H162.772V28.162H164.709V35ZM172.922 31.568C172.922 32.1053 172.844 32.5993 172.688 33.05C172.532 33.492 172.307 33.8733 172.012 34.194C171.718 34.506 171.362 34.7487 170.946 34.922C170.539 35.0953 170.08 35.182 169.568 35.182C169.066 35.182 168.606 35.0953 168.19 34.922C167.783 34.7487 167.432 34.506 167.137 34.194C166.843 33.8733 166.613 33.492 166.448 33.05C166.284 32.5993 166.201 32.1053 166.201 31.568C166.201 31.0307 166.284 30.541 166.448 30.099C166.622 29.657 166.856 29.28 167.15 28.968C167.454 28.656 167.809 28.4133 168.216 28.24C168.632 28.0667 169.083 27.98 169.568 27.98C170.062 27.98 170.513 28.0667 170.92 28.24C171.336 28.4133 171.692 28.656 171.986 28.968C172.281 29.28 172.511 29.657 172.675 30.099C172.84 30.541 172.922 31.0307 172.922 31.568ZM170.946 31.568C170.946 30.97 170.825 30.502 170.582 30.164C170.348 29.8173 170.01 29.644 169.568 29.644C169.126 29.644 168.784 29.8173 168.541 30.164C168.299 30.502 168.177 30.97 168.177 31.568C168.177 32.166 168.299 32.6427 168.541 32.998C168.784 33.3447 169.126 33.518 169.568 33.518C170.01 33.518 170.348 33.3447 170.582 32.998C170.825 32.6427 170.946 32.166 170.946 31.568ZM179.272 29.748H176.36V35H174.423V28.162H179.272V29.748ZM186.709 31.568C186.709 32.1053 186.631 32.5993 186.475 33.05C186.319 33.492 186.094 33.8733 185.799 34.194C185.505 34.506 185.149 34.7487 184.733 34.922C184.326 35.0953 183.867 35.182 183.355 35.182C182.853 35.182 182.393 35.0953 181.977 34.922C181.57 34.7487 181.219 34.506 180.924 34.194C180.63 33.8733 180.4 33.492 180.235 33.05C180.071 32.5993 179.988 32.1053 179.988 31.568C179.988 31.0307 180.071 30.541 180.235 30.099C180.409 29.657 180.643 29.28 180.937 28.968C181.241 28.656 181.596 28.4133 182.003 28.24C182.419 28.0667 182.87 27.98 183.355 27.98C183.849 27.98 184.3 28.0667 184.707 28.24C185.123 28.4133 185.479 28.656 185.773 28.968C186.068 29.28 186.298 29.657 186.462 30.099C186.627 30.541 186.709 31.0307 186.709 31.568ZM184.733 31.568C184.733 30.97 184.612 30.502 184.369 30.164C184.135 29.8173 183.797 29.644 183.355 29.644C182.913 29.644 182.571 29.8173 182.328 30.164C182.086 30.502 181.964 30.97 181.964 31.568C181.964 32.166 182.086 32.6427 182.328 32.998C182.571 33.3447 182.913 33.518 183.355 33.518C183.797 33.518 184.135 33.3447 184.369 32.998C184.612 32.6427 184.733 32.166 184.733 31.568ZM105.978 44.748C105.969 44.9993 105.956 45.268 105.939 45.554C105.93 45.8313 105.909 46.113 105.874 46.399C105.839 46.6763 105.792 46.9493 105.731 47.218C105.679 47.4867 105.61 47.738 105.523 47.972C105.419 48.2493 105.285 48.5093 105.12 48.752C104.964 48.986 104.76 49.1983 104.509 49.389C104.266 49.5797 103.967 49.74 103.612 49.87C103.265 49.9913 102.858 50.0737 102.39 50.117L102.13 48.505C102.572 48.4183 102.914 48.297 103.157 48.141C103.4 47.9763 103.582 47.7683 103.703 47.517C103.798 47.3003 103.872 47.049 103.924 46.763C103.985 46.477 104.028 46.178 104.054 45.866C104.08 45.5453 104.093 45.2203 104.093 44.891C104.102 44.5617 104.106 44.2453 104.106 43.942V43.162H109.241V50H107.304V44.748H105.978ZM112.997 50H111.06V43.162H112.997V50ZM113.179 41.186C113.179 41.5413 113.062 41.823 112.828 42.031C112.603 42.2303 112.334 42.33 112.022 42.33C111.71 42.33 111.437 42.2303 111.203 42.031C110.978 41.823 110.865 41.5413 110.865 41.186C110.865 40.8307 110.978 40.5533 111.203 40.354C111.437 40.146 111.71 40.042 112.022 40.042C112.334 40.042 112.603 40.146 112.828 40.354C113.062 40.5533 113.179 40.8307 113.179 41.186ZM116.755 45.554C116.946 45.372 117.145 45.1727 117.353 44.956C117.57 44.7393 117.778 44.527 117.977 44.319C118.177 44.1023 118.367 43.8943 118.549 43.695C118.731 43.4957 118.892 43.318 119.03 43.162H121.383C121.21 43.344 120.993 43.5693 120.733 43.838C120.482 44.1067 120.213 44.3883 119.927 44.683C119.641 44.969 119.351 45.255 119.056 45.541C118.77 45.827 118.497 46.0827 118.237 46.308C118.497 46.5073 118.775 46.7543 119.069 47.049C119.364 47.3437 119.65 47.66 119.927 47.998C120.213 48.336 120.482 48.6783 120.733 49.025C120.993 49.3717 121.214 49.6967 121.396 50H119.186C119.03 49.766 118.853 49.5233 118.653 49.272C118.454 49.012 118.246 48.7607 118.029 48.518C117.813 48.2667 117.592 48.0327 117.366 47.816C117.15 47.5993 116.946 47.413 116.755 47.257V50H114.818V43.162H116.755V45.554ZM128.824 43.162C128.434 44.4793 128.026 45.7143 127.602 46.867C127.177 48.0197 126.713 49.1377 126.211 50.221C126.029 50.611 125.847 50.9403 125.665 51.209C125.483 51.4863 125.283 51.7117 125.067 51.885C124.85 52.067 124.603 52.197 124.326 52.275C124.057 52.3617 123.741 52.405 123.377 52.405C123.073 52.405 122.792 52.3747 122.532 52.314C122.28 52.262 122.072 52.2013 121.908 52.132L122.246 50.585C122.445 50.6543 122.623 50.702 122.779 50.728C122.935 50.754 123.099 50.767 123.273 50.767C123.619 50.767 123.884 50.6717 124.066 50.481C124.256 50.299 124.417 50.0433 124.547 49.714C124.105 48.8473 123.663 47.8767 123.221 46.802C122.779 45.7187 122.363 44.5053 121.973 43.162H124.027C124.113 43.5 124.213 43.8683 124.326 44.267C124.447 44.657 124.573 45.0557 124.703 45.463C124.833 45.8617 124.963 46.2517 125.093 46.633C125.231 47.0143 125.361 47.361 125.483 47.673C125.595 47.361 125.712 47.0143 125.834 46.633C125.955 46.2517 126.072 45.8617 126.185 45.463C126.306 45.0557 126.419 44.657 126.523 44.267C126.635 43.8683 126.735 43.5 126.822 43.162H128.824ZM131.799 48.57C131.92 48.5873 132.081 48.6047 132.28 48.622C132.488 48.6307 132.679 48.635 132.852 48.635C133.285 48.635 133.623 48.583 133.866 48.479C134.109 48.3663 134.23 48.167 134.23 47.881C134.23 47.6037 134.117 47.413 133.892 47.309C133.675 47.1963 133.355 47.14 132.93 47.14H131.799V48.57ZM132.891 45.84C133.212 45.84 133.472 45.801 133.671 45.723C133.87 45.6363 133.97 45.4543 133.97 45.177C133.97 44.917 133.857 44.7393 133.632 44.644C133.407 44.5487 133.112 44.501 132.748 44.501C132.627 44.501 132.466 44.5097 132.267 44.527C132.076 44.5357 131.92 44.5487 131.799 44.566V45.84H132.891ZM132.826 50.13C132.583 50.13 132.323 50.1213 132.046 50.104C131.769 50.0867 131.496 50.0607 131.227 50.026C130.958 50 130.703 49.9697 130.46 49.935C130.226 49.8917 130.027 49.8527 129.862 49.818V43.266C130.027 43.2313 130.226 43.201 130.46 43.175C130.703 43.1403 130.958 43.11 131.227 43.084C131.496 43.058 131.769 43.0407 132.046 43.032C132.323 43.0147 132.583 43.006 132.826 43.006C133.389 43.006 133.862 43.0623 134.243 43.175C134.633 43.2877 134.945 43.435 135.179 43.617C135.422 43.799 135.595 44.0027 135.699 44.228C135.803 44.4533 135.855 44.6787 135.855 44.904C135.855 45.2073 135.781 45.4847 135.634 45.736C135.487 45.9873 135.3 46.1693 135.075 46.282C135.196 46.334 135.318 46.4077 135.439 46.503C135.569 46.5983 135.686 46.7153 135.79 46.854C135.894 46.984 135.976 47.1443 136.037 47.335C136.106 47.517 136.141 47.7293 136.141 47.972C136.141 48.2493 136.085 48.518 135.972 48.778C135.868 49.038 135.686 49.2677 135.426 49.467C135.166 49.6663 134.824 49.8267 134.399 49.948C133.974 50.0693 133.45 50.13 132.826 50.13ZM140.245 48.648C140.435 48.648 140.617 48.6437 140.791 48.635C140.964 48.6263 141.103 48.6133 141.207 48.596V47.127C141.129 47.1097 141.012 47.0923 140.856 47.075C140.7 47.0577 140.557 47.049 140.427 47.049C140.245 47.049 140.071 47.062 139.907 47.088C139.751 47.1053 139.612 47.1443 139.491 47.205C139.369 47.2657 139.274 47.348 139.205 47.452C139.135 47.556 139.101 47.686 139.101 47.842C139.101 48.1453 139.2 48.3577 139.4 48.479C139.608 48.5917 139.889 48.648 140.245 48.648ZM140.089 42.98C140.661 42.98 141.137 43.045 141.519 43.175C141.9 43.305 142.203 43.4913 142.429 43.734C142.663 43.9767 142.827 44.2713 142.923 44.618C143.018 44.9647 143.066 45.3503 143.066 45.775V49.805C142.788 49.8657 142.403 49.935 141.909 50.013C141.415 50.0997 140.817 50.143 140.115 50.143C139.673 50.143 139.27 50.104 138.906 50.026C138.55 49.948 138.243 49.8223 137.983 49.649C137.723 49.467 137.523 49.233 137.385 48.947C137.246 48.661 137.177 48.31 137.177 47.894C137.177 47.4953 137.255 47.1573 137.411 46.88C137.575 46.6027 137.792 46.3817 138.061 46.217C138.329 46.0523 138.637 45.9353 138.984 45.866C139.33 45.788 139.69 45.749 140.063 45.749C140.314 45.749 140.535 45.762 140.726 45.788C140.925 45.8053 141.085 45.8313 141.207 45.866V45.684C141.207 45.3547 141.107 45.0903 140.908 44.891C140.708 44.6917 140.362 44.592 139.868 44.592C139.538 44.592 139.213 44.618 138.893 44.67C138.572 44.7133 138.295 44.7783 138.061 44.865L137.814 43.305C137.926 43.2703 138.065 43.2357 138.23 43.201C138.403 43.1577 138.589 43.123 138.789 43.097C138.988 43.0623 139.196 43.0363 139.413 43.019C139.638 42.993 139.863 42.98 140.089 42.98ZM150.706 50H148.769V47.296H146.754V50H144.817V43.162H146.754V45.71H148.769V43.162H150.706V50ZM158.412 50H156.475V47.296H154.46V50H152.523V43.162H154.46V45.71H156.475V43.162H158.412V50ZM163.063 47.569C162.786 47.9763 162.539 48.388 162.322 48.804C162.106 49.2113 161.898 49.61 161.698 50H159.709C159.961 49.4367 160.216 48.921 160.476 48.453C160.736 47.985 160.988 47.582 161.23 47.244C160.866 47.0533 160.576 46.8107 160.359 46.516C160.143 46.2127 160.034 45.8357 160.034 45.385C160.034 44.6223 160.307 44.0373 160.853 43.63C161.408 43.2227 162.171 43.019 163.141 43.019C163.358 43.019 163.596 43.0277 163.856 43.045C164.125 43.0623 164.389 43.0883 164.649 43.123C164.909 43.1577 165.156 43.1967 165.39 43.24C165.633 43.2747 165.837 43.3137 166.001 43.357V50H164.064V47.569H163.063ZM164.064 44.553C163.978 44.5443 163.843 44.5357 163.661 44.527C163.479 44.5097 163.323 44.501 163.193 44.501C162.717 44.501 162.392 44.5833 162.218 44.748C162.045 44.904 161.958 45.1077 161.958 45.359C161.958 45.515 161.993 45.6493 162.062 45.762C162.132 45.866 162.223 45.9527 162.335 46.022C162.448 46.0827 162.574 46.126 162.712 46.152C162.851 46.178 162.99 46.191 163.128 46.191H164.064V44.553ZM169.472 40.12V41.082C169.472 41.498 169.437 41.953 169.368 42.447C169.307 42.941 169.238 43.4393 169.16 43.942H167.873C167.778 43.4393 167.7 42.941 167.639 42.447C167.587 41.953 167.561 41.4937 167.561 41.069V40.12H169.472ZM172.306 40.12V41.082C172.306 41.498 172.271 41.953 172.202 42.447C172.141 42.941 172.072 43.4393 171.994 43.942H170.707C170.612 43.4393 170.534 42.941 170.473 42.447C170.421 41.953 170.395 41.4937 170.395 41.069V40.12H172.306ZM182.434 50C182.252 49.7053 182.035 49.389 181.784 49.051C181.541 48.7043 181.273 48.362 180.978 48.024C180.692 47.6773 180.393 47.348 180.081 47.036C179.769 46.7153 179.457 46.4337 179.145 46.191V50H177.117V40.991H179.145V44.397C179.674 43.8423 180.202 43.266 180.731 42.668C181.268 42.0613 181.767 41.5023 182.226 40.991H184.631C184.016 41.719 183.396 42.421 182.772 43.097C182.157 43.773 181.507 44.4533 180.822 45.138C181.541 45.736 182.235 46.4467 182.902 47.27C183.578 48.0933 184.224 49.0033 184.839 50H182.434ZM191.438 40.991H193.466V50H191.438V46.178H188.032V50H186.004V40.991H188.032V44.436H191.438V40.991ZM202.961 40.991V50H200.933V42.707H197.579V50H195.551V40.991H202.961ZM104.561 55.12V56.082C104.561 56.498 104.526 56.953 104.457 57.447C104.396 57.941 104.327 58.4393 104.249 58.942H102.962C102.867 58.4393 102.789 57.941 102.728 57.447C102.676 56.953 102.65 56.4937 102.65 56.069V55.12H104.561ZM107.395 55.12V56.082C107.395 56.498 107.36 56.953 107.291 57.447C107.23 57.941 107.161 58.4393 107.083 58.942H105.796C105.701 58.4393 105.623 57.941 105.562 57.447C105.51 56.953 105.484 56.4937 105.484 56.069V55.12H107.395ZM115.981 55.991V57.72H113.264V65H111.236V57.72H108.519V55.991H115.981ZM119.549 55.991C119.705 56.277 119.883 56.6323 120.082 57.057C120.29 57.473 120.503 57.928 120.719 58.422C120.945 58.9073 121.166 59.4057 121.382 59.917C121.599 60.4283 121.803 60.9093 121.993 61.36C122.184 60.9093 122.388 60.4283 122.604 59.917C122.821 59.4057 123.038 58.9073 123.254 58.422C123.48 57.928 123.692 57.473 123.891 57.057C124.099 56.6323 124.281 56.277 124.437 55.991H126.283C126.37 56.589 126.448 57.2607 126.517 58.006C126.595 58.7427 126.66 59.514 126.712 60.32C126.773 61.1173 126.825 61.919 126.868 62.725C126.92 63.531 126.964 64.2893 126.998 65H125.022C124.996 64.1247 124.962 63.1713 124.918 62.14C124.875 61.1087 124.81 60.0687 124.723 59.02C124.567 59.384 124.394 59.787 124.203 60.229C124.013 60.671 123.822 61.113 123.631 61.555C123.449 61.997 123.272 62.4217 123.098 62.829C122.925 63.2277 122.778 63.57 122.656 63.856H121.239C121.118 63.57 120.971 63.2277 120.797 62.829C120.624 62.4217 120.442 61.997 120.251 61.555C120.069 61.113 119.883 60.671 119.692 60.229C119.502 59.787 119.328 59.384 119.172 59.02C119.086 60.0687 119.021 61.1087 118.977 62.14C118.934 63.1713 118.899 64.1247 118.873 65H116.897C116.932 64.2893 116.971 63.531 117.014 62.725C117.066 61.919 117.118 61.1173 117.17 60.32C117.231 59.514 117.296 58.7427 117.365 58.006C117.443 57.2607 117.526 56.589 117.612 55.991H119.549ZM130.527 60.489C130.527 60.931 130.579 61.3297 130.683 61.685C130.796 62.0403 130.952 62.348 131.151 62.608C131.359 62.8593 131.611 63.0543 131.905 63.193C132.2 63.3317 132.538 63.401 132.919 63.401C133.292 63.401 133.626 63.3317 133.92 63.193C134.224 63.0543 134.475 62.8593 134.674 62.608C134.882 62.348 135.038 62.0403 135.142 61.685C135.255 61.3297 135.311 60.931 135.311 60.489C135.311 60.047 135.255 59.6483 135.142 59.293C135.038 58.929 134.882 58.6213 134.674 58.37C134.475 58.11 134.224 57.9107 133.92 57.772C133.626 57.6333 133.292 57.564 132.919 57.564C132.538 57.564 132.2 57.6377 131.905 57.785C131.611 57.9237 131.359 58.123 131.151 58.383C130.952 58.6343 130.796 58.942 130.683 59.306C130.579 59.6613 130.527 60.0557 130.527 60.489ZM137.404 60.489C137.404 61.2603 137.287 61.9407 137.053 62.53C136.828 63.1107 136.516 63.6003 136.117 63.999C135.719 64.389 135.242 64.6837 134.687 64.883C134.141 65.0823 133.552 65.182 132.919 65.182C132.304 65.182 131.723 65.0823 131.177 64.883C130.631 64.6837 130.155 64.389 129.747 63.999C129.34 63.6003 129.019 63.1107 128.785 62.53C128.551 61.9407 128.434 61.2603 128.434 60.489C128.434 59.7177 128.556 59.0417 128.798 58.461C129.041 57.8717 129.366 57.3777 129.773 56.979C130.189 56.5803 130.666 56.2813 131.203 56.082C131.749 55.8827 132.321 55.783 132.919 55.783C133.535 55.783 134.115 55.8827 134.661 56.082C135.207 56.2813 135.684 56.5803 136.091 56.979C136.499 57.3777 136.819 57.8717 137.053 58.461C137.287 59.0417 137.404 59.7177 137.404 60.489ZM143.739 55.12V56.082C143.739 56.498 143.704 56.953 143.635 57.447C143.574 57.941 143.505 58.4393 143.427 58.942H142.14C142.044 58.4393 141.966 57.941 141.906 57.447C141.854 56.953 141.828 56.4937 141.828 56.069V55.12H143.739ZM146.573 55.12V56.082C146.573 56.498 146.538 56.953 146.469 57.447C146.408 57.941 146.339 58.4393 146.261 58.942H144.974C144.878 58.4393 144.8 57.941 144.74 57.447C144.688 56.953 144.662 56.4937 144.662 56.069V55.12H146.573ZM152.369 65.182C150.904 65.182 149.786 64.7747 149.015 63.96C148.252 63.1453 147.871 61.9883 147.871 60.489C147.871 59.7437 147.988 59.0807 148.222 58.5C148.456 57.9107 148.776 57.4167 149.184 57.018C149.591 56.6107 150.076 56.303 150.64 56.095C151.203 55.887 151.814 55.783 152.473 55.783C152.854 55.783 153.201 55.8133 153.513 55.874C153.825 55.926 154.098 55.991 154.332 56.069C154.566 56.1383 154.761 56.212 154.917 56.29C155.073 56.368 155.185 56.4287 155.255 56.472L154.67 58.11C154.392 57.9627 154.067 57.837 153.695 57.733C153.331 57.629 152.915 57.577 152.447 57.577C152.135 57.577 151.827 57.629 151.524 57.733C151.229 57.837 150.965 58.006 150.731 58.24C150.505 58.4653 150.323 58.76 150.185 59.124C150.046 59.488 149.977 59.93 149.977 60.45C149.977 60.866 150.02 61.256 150.107 61.62C150.202 61.9753 150.349 62.283 150.549 62.543C150.757 62.803 151.025 63.011 151.355 63.167C151.684 63.3143 152.083 63.388 152.551 63.388C152.845 63.388 153.11 63.3707 153.344 63.336C153.578 63.3013 153.786 63.2623 153.968 63.219C154.15 63.167 154.31 63.1107 154.449 63.05C154.587 62.9893 154.713 62.933 154.826 62.881L155.385 64.506C155.099 64.6793 154.696 64.8353 154.176 64.974C153.656 65.1127 153.053 65.182 152.369 65.182ZM159.082 55.991C159.238 56.277 159.416 56.6323 159.615 57.057C159.823 57.473 160.036 57.928 160.252 58.422C160.478 58.9073 160.699 59.4057 160.915 59.917C161.132 60.4283 161.336 60.9093 161.526 61.36C161.717 60.9093 161.921 60.4283 162.137 59.917C162.354 59.4057 162.571 58.9073 162.787 58.422C163.013 57.928 163.225 57.473 163.424 57.057C163.632 56.6323 163.814 56.277 163.97 55.991H165.816C165.903 56.589 165.981 57.2607 166.05 58.006C166.128 58.7427 166.193 59.514 166.245 60.32C166.306 61.1173 166.358 61.919 166.401 62.725C166.453 63.531 166.497 64.2893 166.531 65H164.555C164.529 64.1247 164.495 63.1713 164.451 62.14C164.408 61.1087 164.343 60.0687 164.256 59.02C164.1 59.384 163.927 59.787 163.736 60.229C163.546 60.671 163.355 61.113 163.164 61.555C162.982 61.997 162.805 62.4217 162.631 62.829C162.458 63.2277 162.311 63.57 162.189 63.856H160.772C160.651 63.57 160.504 63.2277 160.33 62.829C160.157 62.4217 159.975 61.997 159.784 61.555C159.602 61.113 159.416 60.671 159.225 60.229C159.035 59.787 158.861 59.384 158.705 59.02C158.619 60.0687 158.554 61.1087 158.51 62.14C158.467 63.1713 158.432 64.1247 158.406 65H156.43C156.465 64.2893 156.504 63.531 156.547 62.725C156.599 61.919 156.651 61.1173 156.703 60.32C156.764 59.514 156.829 58.7427 156.898 58.006C156.976 57.2607 157.059 56.589 157.145 55.991H159.082ZM170.06 60.489C170.06 60.931 170.112 61.3297 170.216 61.685C170.329 62.0403 170.485 62.348 170.684 62.608C170.892 62.8593 171.144 63.0543 171.438 63.193C171.733 63.3317 172.071 63.401 172.452 63.401C172.825 63.401 173.159 63.3317 173.453 63.193C173.757 63.0543 174.008 62.8593 174.207 62.608C174.415 62.348 174.571 62.0403 174.675 61.685C174.788 61.3297 174.844 60.931 174.844 60.489C174.844 60.047 174.788 59.6483 174.675 59.293C174.571 58.929 174.415 58.6213 174.207 58.37C174.008 58.11 173.757 57.9107 173.453 57.772C173.159 57.6333 172.825 57.564 172.452 57.564C172.071 57.564 171.733 57.6377 171.438 57.785C171.144 57.9237 170.892 58.123 170.684 58.383C170.485 58.6343 170.329 58.942 170.216 59.306C170.112 59.6613 170.06 60.0557 170.06 60.489ZM176.937 60.489C176.937 61.2603 176.82 61.9407 176.586 62.53C176.361 63.1107 176.049 63.6003 175.65 63.999C175.252 64.389 174.775 64.6837 174.22 64.883C173.674 65.0823 173.085 65.182 172.452 65.182C171.837 65.182 171.256 65.0823 170.71 64.883C170.164 64.6837 169.688 64.389 169.28 63.999C168.873 63.6003 168.552 63.1107 168.318 62.53C168.084 61.9407 167.967 61.2603 167.967 60.489C167.967 59.7177 168.089 59.0417 168.331 58.461C168.574 57.8717 168.899 57.3777 169.306 56.979C169.722 56.5803 170.199 56.2813 170.736 56.082C171.282 55.8827 171.854 55.783 172.452 55.783C173.068 55.783 173.648 55.8827 174.194 56.082C174.74 56.2813 175.217 56.5803 175.624 56.979C176.032 57.3777 176.352 57.8717 176.586 58.461C176.82 59.0417 176.937 59.7177 176.937 60.489ZM182.567 57.707C182.541 58.2877 182.506 58.8727 182.463 59.462C182.428 60.0427 182.359 60.606 182.255 61.152C182.16 61.698 182.017 62.2093 181.826 62.686C181.644 63.1627 181.388 63.583 181.059 63.947C180.738 64.311 180.335 64.6013 179.85 64.818C179.365 65.0347 178.771 65.156 178.069 65.182L177.848 63.414C178.472 63.3447 178.953 63.1887 179.291 62.946C179.629 62.6947 179.885 62.3133 180.058 61.802C180.275 61.1693 180.426 60.3547 180.513 59.358C180.608 58.3527 180.656 57.2303 180.656 55.991H186.805V65H184.777V57.707H182.567ZM190.407 55.12V56.082C190.407 56.498 190.372 56.953 190.303 57.447C190.242 57.941 190.173 58.4393 190.095 58.942H188.808C188.712 58.4393 188.634 57.941 188.574 57.447C188.522 56.953 188.496 56.4937 188.496 56.069V55.12H190.407ZM193.241 55.12V56.082C193.241 56.498 193.206 56.953 193.137 57.447C193.076 57.941 193.007 58.4393 192.929 58.942H191.642C191.546 58.4393 191.468 57.941 191.408 57.447C191.356 56.953 191.33 56.4937 191.33 56.069V55.12H193.241Z" fill="white"/>
</svg>
